<?xml version="1.0" encoding="UTF-8" standalone="no"?>
<!-- Created with Inkscape (http://www.inkscape.org/) -->

<svg
   id="svg2"
   viewBox="0 0 344.9587 319.79758"
   version="1.0"
   width="344.95871"
   height="319.79758"
   xmlns:xlink="http://www.w3.org/1999/xlink"
   xmlns="http://www.w3.org/2000/svg"
   xmlns:svg="http://www.w3.org/2000/svg"
   xmlns:rdf="http://www.w3.org/1999/02/22-rdf-syntax-ns#"
   xmlns:cc="http://creativecommons.org/ns#"
   xmlns:dc="http://purl.org/dc/elements/1.1/">
  <defs
     id="defs4">
    <linearGradient
       id="linearGradient3168">
      <stop
         id="stop3170"
         style="stop-color:#f7ec9a"
         offset="0" />
      <stop
         id="stop3176"
         style="stop-color:#f6ea8d"
         offset=".13401" />
      <stop
         id="stop3180"
         style="stop-color:#f5e98a"
         offset=".45674" />
      <stop
         id="stop3178"
         style="stop-color:#f8ed9d"
         offset=".80934" />
      <stop
         id="stop3172"
         style="stop-color:#f5e98a"
         offset="1" />
    </linearGradient>
    <filter
       id="filter4781"
       x="-0.042757749"
       y="-0.046095167"
       width="1.0855155"
       height="1.0921903">
      <feGaussianBlur
         id="feGaussianBlur4783"
         stdDeviation="5.4601647" />
    </filter>
    <linearGradient
       id="linearGradient4847"
       y2="608.08002"
       xlink:href="#linearGradient3168"
       gradientUnits="userSpaceOnUse"
       x2="200.96001"
       gradientTransform="matrix(1.1054013,0.00466131,-0.00470861,1.0942987,-202.35899,-370.8208)"
       y1="363.75"
       x1="461.17999" />
  </defs>
  <g
     id="layer1"
     transform="translate(0.86355894,-12.854996)">
    <rect
       id="rect4857"
       style="opacity:0.44783;fill-opacity:0"
       height="314.29001"
       width="336.42999"
       y="12.854996"
       x="1.7850037" />
    <path
       id="path4843"
       style="opacity:0.44783;fill:#000000;filter:url(#filter4781)"
       d="m 111.75,670.22 291.37,-1.42 5.86,284.29 c 0,0 -228.99,-3.84 -306.48,-0.73 7.35,-70.31 9.25,-282.14 9.25,-282.14 z"
       transform="matrix(1.0231,0.0042596,-0.0043582,0.99999,-88.113334,-642.02623)" />
    <path
       id="path4845"
       style="fill:url(#linearGradient4847);stroke-width:1.09985"
       d="M 2.0649243,14.857688 338.41981,16.277007 337.08226,327.36732 c 0,0 -290.237079,6.31417 -329.9545468,-17.02745 C -1.1628801,270.87907 2.0649243,14.854405 2.0649243,14.854405 Z" />
    <path
       style="fill:#ff761c;fill-opacity:0.718069"
       id="path7"
       d="m 306.18719,332.65258 c 0.84596,-0.99227 1.89243,-1.80852 2.89578,-2.63693 1.64771,-1.34016 3.35648,-2.59889 4.81868,-4.14422 1.84616,-1.98582 3.52943,-4.11993 5.13268,-6.30467 1.99953,-3.04119 3.25813,-6.46506 4.36042,-9.91071 1.40974,-4.28454 2.46281,-8.67384 3.54902,-13.0484 1.20663,-4.50737 2.16144,-9.06935 2.98967,-13.65931 0.90309,-5.26657 1.52182,-10.57186 2.08452,-15.8835 0.67031,-6.31361 1.00868,-12.65162 1.14835,-18.99692 0.19992,-6.56625 0.18587,-13.13362 -0.19001,-19.69222 -0.43467,-6.10752 -1.17082,-12.18835 -2.03666,-18.2481 -0.87303,-6.192 -2.89747,-12.09682 -5.06166,-17.93303 -2.00901,-5.38108 -4.46222,-10.57401 -7.07755,-15.68213 -0.40634,-0.7617 -0.81268,-1.5234 -1.21902,-2.28511 0,0 -35.67185,-23.25164 -35.67185,-23.25164 v 0 c 0.43895,0.76144 0.8779,1.52289 1.31686,2.28434 2.84151,5.02906 5.51879,10.15393 7.73337,15.495 2.25914,5.53059 4.36677,11.14417 5.39603,17.05515 1.01934,6.01941 1.97324,12.0573 2.51254,18.14165 0.52328,6.46309 0.70349,12.9498 0.54126,19.43331 -0.23995,6.14452 -0.53221,12.29099 -1.38113,18.38815 -0.63346,5.1414 -1.33084,10.27796 -2.28088,15.37185 -0.84798,4.49526 -1.79568,8.97123 -2.8636,13.41975 -1.05833,4.21283 -2.17219,8.41306 -3.62112,12.51196 -1.10287,2.93969 -2.191,5.92496 -4.08173,8.47017 -1.43662,1.97779 -2.95765,3.9085 -4.77752,5.55258 -1.52158,1.25103 -3.04508,2.49999 -4.66835,3.61948 -0.91451,0.62476 -2.11235,1.56415 -3.20666,1.72955 z" />
    <path
       style="fill:#ff2a2a"
       id="path4"
       d="m 296.56819,294.47831 c 0.87182,-3.02124 2.47325,-5.77797 3.92588,-8.54946 1.715,-3.2201 3.20051,-6.55162 4.64525,-9.89909 1.67477,-3.84807 3.14478,-7.77838 4.48485,-11.75395 1.55342,-4.47348 2.4473,-9.11184 3.07109,-13.79319 0.64817,-5.34849 0.78975,-10.73671 0.69262,-16.1178 -0.12818,-5.86365 -1.12209,-11.64572 -2.26718,-17.38147 -1.12271,-5.79215 -2.871,-11.42244 -4.82685,-16.97893 -1.77898,-5.0035 -4.02486,-9.8174 -6.41774,-14.55147 -1.92854,-3.77536 -4.11143,-7.41053 -6.33892,-11.01463 -1.22436,-1.96185 -2.46941,-3.91092 -3.63184,-5.91045 -0.34585,-0.58423 -0.65919,-1.186 -0.95701,-1.79567 -0.0411,-0.0893 -0.0782,-0.18026 -0.1153,-0.27124 -0.68464,1.05807 -0.59552,0.67749 0.0906,0.92593 1.35963,0.49558 2.65153,1.14856 3.92843,1.82421 3.31437,1.89293 -2.89987,-1.68337 -4.35829,-2.51022 -0.31708,-0.17978 0.62465,0.37595 0.93296,0.57039 0.98618,0.62192 1.93554,1.29222 2.88185,1.97242 2.08536,1.52829 4.03922,3.2225 5.95055,4.96033 2.39365,2.21689 4.6038,4.62037 6.74731,7.07675 2.25856,2.59416 4.29671,5.36556 6.24363,8.1976 1.90216,2.78931 3.59455,5.71065 5.2045,8.67559 1.31689,2.46871 2.56916,4.97099 3.79135,7.48768 1.0357,2.14763 2.02738,4.31636 2.98782,6.4986 0.94329,2.15024 1.85468,4.31402 2.76048,6.48024 0.90205,2.13689 1.76051,4.29134 2.54052,6.47575 0.67098,1.91529 1.1717,3.88269 1.65142,5.85258 0.42067,1.82092 0.84732,3.64036 1.28914,5.45628 0.41822,1.66665 0.8013,3.34163 1.15889,5.02224 0.33395,1.49758 0.53727,3.01659 0.66052,4.54449 0.10754,1.61211 0.11069,3.22861 0.11826,4.84355 10e-4,1.66741 -0.0123,3.33482 -0.004,5.00222 -0.003,1.69625 0.14075,3.38718 0.26998,5.07701 0.12898,1.55531 0.18172,3.11503 0.21572,4.67482 0.0327,1.77669 0.0339,3.55374 0.0356,5.33066 0.007,1.72133 -0.0169,3.44253 -0.0226,5.16379 0.006,1.78684 0.0226,3.5736 0.026,5.36046 -0.002,1.74898 -0.0124,3.49795 -0.0285,5.24685 0.005,1.47825 -0.17203,2.94569 -0.38289,4.4059 -0.21653,1.33613 -0.51569,2.65702 -0.80263,3.9793 -0.28348,1.27625 -0.52799,2.56046 -0.72656,3.85256 -0.17186,1.15887 -0.31512,2.32161 -0.50915,3.47707 -0.19464,1.19302 -0.47248,2.36938 -0.77455,3.53902 -0.27103,1.03599 -0.63593,2.04168 -1.02867,3.03655 -0.29854,0.72962 -0.65033,1.43612 -1.03147,2.12573 -0.28635,0.53737 -0.63131,1.03865 -0.97199,1.54201 -0.20679,0.30601 -0.47386,0.56191 -0.71289,0.84039 -0.15158,0.15412 -0.3215,0.288 -0.48236,0.43226 -0.0981,0.0824 -0.10112,0.12454 -0.17534,0.26844 0,0 6.64493,3.58229 6.64493,3.58229 v 0 c -0.14875,0.23963 -0.0998,0.16269 -0.046,0.095 0.15863,-0.16736 0.32832,-0.32414 0.47948,-0.49863 0.26882,-0.29586 0.51107,-0.61269 0.72811,-0.94879 0.34508,-0.52665 0.69558,-1.05067 0.98302,-1.61222 0.38844,-0.72366 0.7369,-1.46746 1.03656,-2.23259 0.3914,-1.02886 0.75627,-2.06679 1.03554,-3.13269 0.30195,-1.18835 0.60159,-2.37858 0.80363,-3.58896 0.2086,-1.16071 0.36608,-2.32932 0.51382,-3.49919 0.17072,-1.28129 0.40512,-2.55257 0.68653,-3.81428 0.29254,-1.34008 0.58554,-2.68079 0.80744,-4.03485 0.21797,-1.49387 0.41853,-2.99399 0.40512,-4.50755 0.006,-1.75863 -0.0223,-3.51721 -0.0183,-5.27587 0.003,-1.77784 0.0203,-3.55557 0.0268,-5.33338 -0.005,-1.72816 -0.0269,-3.45627 -0.0181,-5.18449 0.003,-1.77448 0.01,-3.54897 0.004,-5.32344 -0.0149,-1.57497 -0.0472,-3.15101 -0.19734,-4.72001 -0.14869,-1.67216 -0.2956,-3.34759 -0.29691,-5.0277 -0.009,-1.66802 -0.002,-3.33606 -0.005,-5.0041 0.002,-1.62371 0.0137,-3.24862 -0.0584,-4.87113 -0.10156,-1.56446 -0.3152,-3.11568 -0.64587,-4.64914 -0.36244,-1.69084 -0.74477,-3.37726 -1.17058,-5.05344 -0.45564,-1.81732 -0.89954,-3.63732 -1.31132,-5.46517 -0.4911,-1.9972 -0.99431,-3.99347 -1.66604,-5.93948 -0.77594,-2.20718 -1.64995,-4.37625 -2.56532,-6.52921 -0.8934,-2.16438 -1.77592,-4.33334 -2.71906,-6.47678 -0.96527,-2.20546 -1.98999,-4.38446 -3.0367,-6.55234 -1.24314,-2.53865 -2.5182,-5.06186 -3.85596,-7.55217 -1.63819,-2.98853 -3.35457,-5.93414 -5.24869,-8.76939 -1.92064,-2.85923 -3.93767,-5.65608 -6.19274,-8.26408 -2.10828,-2.45198 -4.27773,-4.8562 -6.60588,-7.10289 -1.8775,-1.75705 -3.80918,-3.45687 -5.86003,-5.0109 -3.68257,-2.73954 -7.64209,-5.05211 -11.7168,-7.17693 -1.36038,-0.69686 -2.73689,-1.3693 -4.17806,-1.88526 -0.76205,-0.25484 -0.49715,-0.47665 -1.09568,0.52961 0.0549,0.0974 0.1098,0.19473 0.16159,0.29381 0.33009,0.67005 0.73575,1.30079 1.11785,1.94144 1.29759,2.04092 2.64463,4.04923 3.96997,6.07212 2.32547,3.60881 4.59841,7.25492 6.59178,11.06083 2.45156,4.71654 4.73057,9.52526 6.56031,14.52197 2.00541,5.52766 3.78985,11.13595 4.91851,16.91727 1.14236,5.68936 2.12385,11.42631 2.25354,17.2435 0.0935,5.33669 -0.0675,10.67964 -0.73723,15.98071 -0.64189,4.62694 -1.54745,9.20813 -3.11688,13.62198 -1.34452,3.94927 -2.80089,7.86129 -4.52455,11.66319 -1.48354,3.3107 -2.98442,6.61645 -4.65467,9.83822 -1.47686,2.79593 -2.98868,5.57401 -4.38314,8.41259 z" />
    <path
       style="fill:#ff6600;fill-opacity:0.425234"
       id="path13"
       d="m 279.48754,286.76322 c -1.04369,-0.87606 -1.8821,-2.00539 -2.6706,-3.11328 -1.19888,-1.58355 -2.38336,-3.17688 -3.55683,-4.78145 -1.2628,-1.83232 -2.54892,-3.64701 -3.75013,-5.52089 -1.5425,-2.18031 -2.78429,-4.53837 -3.9433,-6.93806 -1.35989,-2.86799 -2.55493,-5.80921 -3.69381,-8.77058 -1.00487,-2.76879 -1.88283,-5.58072 -2.71522,-8.40537 -0.70088,-2.43199 -1.18291,-4.9385 -1.43016,-7.45834 -0.24269,-1.92761 -0.0243,-3.94628 -0.84235,-5.75241 -1.18495,-1.38763 -3.2712,-1.33081 -4.93927,-1.09084 -1.29471,0.2149 -2.31331,0.97827 -3.11018,1.99101 -0.95283,1.33761 -1.48748,2.92727 -1.89367,4.50444 -3.21342,16.26036 -1.75016,33.1954 -0.57672,49.69576 0.21986,2.35035 0.66171,4.67419 1.3347,6.93546 0.92136,2.6029 2.31049,4.965 3.90789,7.20078 1.59235,2.39416 3.7164,4.44481 5.96663,6.22158 2.58724,2.10655 5.73797,3.23254 8.85659,4.29092 3.07291,1.0645 6.24251,1.80105 9.39865,2.56663 2.90771,0.69468 5.85353,1.19914 8.79863,1.70254 2.87997,0.4864 5.76036,0.95657 8.67159,1.20237 3.47601,0.17621 6.95277,0.0485 10.42648,-0.0954 1.79024,-0.0889 3.58173,-0.14456 5.37259,-0.21891 0,0 -0.26218,-43.52292 -0.26218,-43.52292 v 0 c -1.7554,0.14005 -3.5117,0.26854 -5.27282,0.31214 -3.28867,0.10945 -6.5917,0.10139 -9.86119,-0.31806 -2.79208,-0.28091 -5.56895,-0.68894 -8.33763,-1.14445 -2.8623,-0.48316 -5.71113,-1.04311 -8.54579,-1.66867 -2.97693,-0.64708 -5.95622,-1.3398 -8.83037,-2.36138 -2.66748,-1.10198 -5.17414,-2.43107 -7.21452,-4.52338 -1.80853,-1.8639 -3.49418,-3.7992 -4.694,-6.12704 -1.15597,-2.26065 -2.09516,-4.64022 -2.42176,-7.17587 -0.31962,-2.31771 -0.56964,-4.6467 -0.5019,-6.99117 0.18445,-17.37027 -0.0209,59.89428 -0.0737,38.02652 0.14729,-1.335 0.29916,-2.65693 0.57707,-3.97382 0.10734,-0.45821 0.31407,-1.31255 -0.24447,-1.45139 -0.65678,-0.23768 -2.13629,-0.30931 -2.49947,0.37487 -0.15711,1.697 0.39003,3.41018 0.62467,5.07523 0.5762,2.4577 1.22622,4.89505 2.08016,7.27285 0.94168,2.81213 1.92369,5.61343 3.08571,8.34352 1.26452,2.93328 2.58725,5.84219 4.05108,8.68233 1.34547,2.57797 2.74694,5.12645 4.41926,7.51114 1.29958,1.88098 2.56899,3.78384 3.91232,5.6338 1.18352,1.65209 2.41715,3.26678 3.55702,4.94968 0.90984,1.21942 1.84103,2.46163 2.40667,3.88473 z" />
    <path
       style="fill:#ff6600;fill-opacity:0.630841"
       id="path14"
       d="m 300.89075,280.45654 c -0.64296,0.73226 -1.81293,1.07075 -2.71446,1.389 -1.8738,0.55449 -3.78786,0.95078 -5.67813,1.44226 -2.19776,0.51184 -4.41784,0.91371 -6.64124,1.29464 -2.33874,0.36744 -4.68773,0.65925 -7.01864,1.07515 -2.66449,0.52487 -5.34737,0.93541 -8.05012,1.20009 -2.49748,0.23412 -4.99974,0.20565 -7.49727,0.0107 -2.2811,-0.19672 -4.54192,-0.56093 -6.78087,-1.03336 -1.81783,-0.39823 -3.55962,-1.0384 -5.14694,-2.00997 -1.13029,-1.0377 -2.19876,-2.14321 -3.17612,-3.32595 -0.92743,-1.09076 -1.42191,-2.447 -1.99588,-3.74206 -0.40911,-1.29087 -0.47179,-2.64999 -0.64693,-3.98463 -0.22999,-1.39199 -0.0884,-2.80083 -0.0872,-4.20288 1.58931,-15.05845 0.075,-0.95044 0.0231,42.52114 -3.1e-4,0.26086 0.002,-0.52171 0.002,-0.78257 0.003,-0.84336 0.0633,-1.66243 0.14711,-2.50145 0.1989,-1.84783 0.31913,-3.6949 0.64598,-5.52697 0.35377,-2.15357 0.95861,-4.25835 1.48805,-6.37415 0.54237,-1.86964 1.11795,-3.73312 1.83047,-5.54556 0.63766,-1.7998 1.47177,-3.52765 2.32745,-5.23282 0.65384,-1.44605 1.41567,-2.83748 2.18209,-4.22567 0,0 -4.59937,-44.05098 -4.59937,-44.05098 v 0 c -0.86341,1.38891 -1.7237,2.78195 -2.50834,4.21728 -0.85673,1.77444 -1.76898,3.52315 -2.65986,5.28077 -0.77249,1.88574 -1.61808,3.74171 -2.21344,5.69601 -0.73416,2.10761 -1.18274,4.29024 -1.87691,6.41036 -0.41904,1.7797 -0.98506,3.53124 -1.08627,5.36915 -1.96205,16.15087 -2.99702,32.5246 -0.49994,48.81232 0.11815,1.46707 0.42065,2.89535 0.81563,4.31271 0.41949,1.48075 1.03009,2.88199 1.94413,4.13125 0.90083,1.39835 1.93895,2.658 3.19728,3.75661 1.43018,1.29728 2.91903,2.56104 4.71729,3.32067 2.04225,0.8364 4.16485,1.43722 6.34266,1.80718 2.4356,0.42135 4.88104,0.79075 7.35266,0.92133 2.74151,0.11694 5.49104,0.19071 8.21989,-0.17128 2.76922,-0.31179 5.53964,-0.62631 8.30094,-0.99814 2.33715,-0.34327 4.67088,-0.70358 7.00981,-1.03469 2.30541,-0.34707 4.60389,-0.74313 6.88634,-1.21964 1.96501,-0.3497 3.90969,-0.8078 5.87511,-1.15835 1.22243,-0.23024 2.43569,-0.51441 3.66463,-0.69211 z" />
    <path
       style="fill:#ff0000"
       id="path3"
       d="m 251.79658,325.07557 c -0.12059,-2.1656 -0.13542,-4.33623 -0.17067,-6.50465 -0.0301,-2.32603 -0.046,-4.65223 -0.0662,-6.97836 -0.003,-2.92397 -0.22064,-5.8401 -0.4734,-8.75112 -0.3378,-3.39642 -0.4639,-6.80699 -0.52983,-10.21781 -0.0786,-3.4494 -0.0683,-6.896 0.14097,-10.34016 0.28054,-3.87681 1.01409,-7.69898 1.78006,-11.50335 0.72515,-3.72577 1.70629,-7.39134 2.81158,-11.02009 1.04106,-3.33268 2.17469,-6.63518 3.36027,-9.91889 1.15015,-3.19096 2.39357,-6.34712 3.75001,-9.45586 1.13633,-2.65881 2.61199,-5.14268 4.19066,-7.55745 1.48156,-2.22699 3.14808,-4.32058 4.77672,-6.4396 1.28724,-1.70775 2.5523,-3.43213 3.80763,-5.16344 0.79926,-1.13065 1.59139,-2.2663 2.3878,-3.39896 0.3563,-0.49066 0.68621,-1.00097 1.05342,-1.48367 0.0297,-0.0459 0.0764,-0.0781 0.11463,-0.11716 -2.21452,-1.22499 -4.3579,-2.58849 -6.64356,-3.67497 -0.15497,-0.0737 -2.33577,3.17875 -2.4672,3.38036 -1.84791,2.87825 -3.24243,6.00077 -4.4619,9.18626 -1.35311,3.75887 -2.20099,7.67176 -2.99512,11.57909 -0.74653,3.70301 -1.02859,7.46993 -1.17411,11.23723 -0.0927,3.70904 -0.0935,7.42011 0.0577,11.12728 0.17663,3.85926 0.83513,7.66661 1.66172,11.43277 0.6778,3.12419 1.79264,6.11416 3.09483,9.02464 1.04484,2.31057 2.32592,4.4991 3.67042,6.64494 1.10801,1.72999 2.31374,3.39458 3.5693,5.01974 1.0719,1.37796 2.2759,2.64376 3.54568,3.83906 2.72303,2.49358 6.0997,4.01543 9.28774,5.85404 0.56476,0.23695 1.10969,0.6326 1.73167,0.69867 0.27955,-0.01 0.53783,-0.0868 0.80508,-0.16311 0,0 -6.06567,-4.28902 -6.06567,-4.28902 v 0 c -0.24469,-0.009 -0.47026,0.007 -0.68727,-0.11862 -0.50498,-0.25598 -1.03454,-0.46334 -1.52025,-0.75778 11.23895,6.51886 5.44498,3.45679 3.18935,1.52881 -1.31666,-1.1469 -2.54257,-2.39515 -3.64682,-3.74934 -1.28964,-1.60707 -2.51531,-3.26451 -3.65664,-4.98069 -1.39017,-2.1315 -2.72271,-4.30544 -3.82082,-6.60481 -1.35686,-2.87819 -2.51736,-5.84323 -3.2619,-8.94467 -0.88949,-3.72614 -1.58806,-7.50207 -1.75794,-11.3382 -0.14854,-3.68317 -0.11295,-7.36913 -0.0279,-11.05387 0.11493,-3.74426 0.3137,-7.49633 1.03577,-11.18156 0.77847,-3.86878 1.64821,-7.73354 2.98376,-11.4541 1.21049,-3.12933 2.62697,-6.18171 4.59545,-8.91711 0.5922,-0.80474 1.1804,-1.59957 1.86171,-2.33226 0.49468,-0.53199 0.79771,-0.76047 0.78627,-0.76928 -1.95828,-1.50916 -4.09634,-2.76944 -6.14451,-4.15417 -0.0478,0.0858 -0.0961,0.17135 -0.14264,0.25788 -0.29208,0.52523 -0.59467,1.04425 -0.92326,1.54779 -0.74371,1.15937 -1.51473,2.30055 -2.28057,3.44535 -1.19189,1.76029 -2.3969,3.51151 -3.68793,5.2015 -1.61657,2.14531 -3.23807,4.28892 -4.72174,6.52981 -1.60753,2.44605 -3.14272,4.94895 -4.2373,7.67488 -1.30485,3.14769 -2.50966,6.33533 -3.6923,9.53071 -1.20483,3.29075 -2.36292,6.59931 -3.37806,9.9543 -1.08316,3.66303 -2.03216,7.36295 -2.77724,11.11086 -0.77559,3.82403 -1.53544,7.66201 -1.88181,11.55345 -0.24825,3.45531 -0.30182,6.91528 -0.19877,10.37859 0.0779,3.41538 0.17959,6.8321 0.47166,10.23717 0.23072,2.87581 0.42945,5.75717 0.38903,8.6444 -0.0103,2.3244 -0.0109,4.6489 0.0334,6.97301 0.0348,2.13064 0.12182,4.26649 -0.0194,6.39473 z" />
    <path
       style="fill:#ff0000"
       id="path6"
       d="m 257.34363,326.05602 c 4.62559,1.13752 9.24328,2.29622 13.89158,3.34829 4.59989,0.9687 9.25974,1.38365 13.94718,1.55853 4.37272,0.19357 8.72057,0.0988 13.06327,-0.43653 5.49099,-0.5428 10.89426,-1.60513 16.25878,-2.86424 6.07229,-1.48583 12.11028,-3.09803 18.22308,-4.41343 3.38308,-0.67153 6.96553,-0.80392 9.77759,-2.98649 1.46633,-1.55979 2.01854,-3.42145 1.23161,-5.42017 0,0 -13.6285,-5.86238 -13.6285,-5.86238 v 0 c 1.58668,0.9204 0.91282,2.25694 -0.0693,3.40157 -2.57565,1.86469 -5.94767,1.92701 -8.90698,2.83338 -6.06353,1.45939 -12.08597,3.09002 -18.1781,4.42782 -5.38448,1.08204 -10.77177,2.22701 -16.25767,2.66706 -4.37076,0.33525 -8.74527,0.28813 -13.12529,0.14546 -4.56208,-0.19797 -9.11719,-0.62547 -13.58475,-1.61202 -4.84654,-1.09466 -9.68762,-2.28932 -14.3876,-3.91155 z" />
    <path
       style="fill:#ff0000;fill-opacity:0.929907"
       id="path16"
       d="m 337.47717,159.93001 c -0.61184,-1.07224 -1.37318,-2.10596 -2.05499,-3.15315 -1.72817,-2.62404 -3.31819,-5.33899 -4.83525,-8.08982 -2.42075,-4.60225 -4.31704,-9.44879 -6.17768,-14.29647 -2.13979,-5.65302 -3.84653,-11.45459 -5.44907,-17.27842 -1.51705,-5.69047 -2.93938,-11.40724 -3.97293,-17.20649 -0.93144,-5.632334 -1.61346,-11.304659 -2.19075,-16.983303 -0.47711,-5.229402 -0.70691,-10.47716 -0.88194,-15.724015 -0.0789,-2.348268 -0.12938,-4.698278 -0.14021,-7.047936 -0.003,-0.73532 0.005,-2.941297 0.007,-2.205972 0.0384,12.247472 -0.0901,16.107127 0.0823,9.926243 0.47079,-8.352608 0.27768,-16.712166 0.25144,-25.075348 -0.0404,-2.092573 -0.28861,-4.215331 -1.54763,-5.93852 -1.1483,-1.164296 -2.67365,-0.888462 -4.03779,-0.313069 -1.60904,0.836815 -2.87556,2.146663 -4.05141,3.499462 -1.63405,1.922289 -2.82655,4.1407 -3.92246,6.397736 -1.48741,3.156066 -2.47646,6.51082 -3.42952,9.857397 -1.10584,3.917749 -2.0243,7.884016 -2.90323,11.85765 -0.96454,4.126937 -1.82403,8.276037 -2.64839,12.432806 -0.83531,4.199586 -1.56774,8.418049 -2.23808,12.646773 -0.61776,3.984607 -1.16547,7.979516 -1.68422,11.978066 -0.46196,3.55469 -0.86548,7.11649 -1.25127,10.68013 -0.36919,3.23565 -0.64236,6.47982 -0.85928,9.7288 -0.38118,6.22137 -0.13773,12.47725 -0.14001,18.69633 0,0 2.28174,-14.46449 2.28174,-14.46449 v 0 c -0.0407,23.74498 -0.1392,15.31192 0.0462,10.17014 0.19504,-3.26353 0.41731,-6.52462 0.79013,-9.77371 0.37229,-3.58706 0.76227,-7.17237 1.21011,-10.7509 0.50233,-4.0197 1.03318,-8.03597 1.63417,-12.04226 0.64832,-4.22631 1.35457,-8.443624 2.179,-12.639577 0.82617,-4.150279 1.63111,-8.305383 2.61888,-12.421397 0.8703,-3.939024 1.74288,-7.87878 2.83158,-11.764775 0.91683,-3.271878 1.82415,-6.564952 3.20567,-9.6782 1.0047,-2.168016 2.07555,-4.320107 3.57639,-6.196361 0.98687,-1.258509 2.0764,-2.47791 3.43373,-3.346065 0.75987,-0.460612 1.38943,-0.689448 1.80905,0.252885 0.73465,1.749634 0.806,3.669973 0.85011,5.544512 0.0483,-26.076119 0.17128,-9.55462 -0.20595,-3.541632 -0.3569,9.191415 -0.19819,18.404516 0.0761,27.597508 0.20208,5.222592 0.46251,10.446357 0.99267,15.647476 0.61953,5.665296 1.31197,11.327466 2.30783,16.940606 1.10932,5.78626 2.54907,11.50007 4.10181,17.18254 1.64577,5.84579 3.40292,11.66567 5.57658,17.34053 1.91372,4.9722 3.88488,9.93179 6.33219,14.67126 1.56604,2.8351 3.18118,5.64421 4.88684,8.39798 0.71014,1.16819 1.40856,2.35584 2.14426,3.50101 z" />
    <path
       style="fill:#ff0000;fill-opacity:0.929907"
       id="path17"
       d="m 280.41516,128.7731 c -1.21128,-0.81212 -2.39397,-1.67292 -3.57228,-2.53352 -2.09607,-1.55883 -4.24129,-3.046 -6.43267,-4.46701 -1.97457,-1.32797 -4.07495,-2.4227 -6.37372,-3.04936 -1.30494,-0.32549 -2.57495,-0.33629 -3.8251,0.16213 -0.96802,0.52742 -1.41736,1.42167 -1.62146,2.4645 -0.61073,6.18936 -0.72762,12.48645 0.0412,18.66186 0.25503,1.85336 0.57741,3.69352 0.91062,5.53402 0.47165,2.4063 0.99609,4.80079 1.57782,7.18283 0.71161,2.89016 1.39203,5.78728 2.01747,8.69734 0.65176,3.04764 1.2049,6.11494 1.7239,9.18757 0.48743,2.95219 0.89289,5.91704 1.28161,8.88357 0.35323,2.71116 0.66098,5.4279 0.95097,8.14646 0.13653,1.59413 0.32686,3.1782 0.60746,4.75307 0,0 2.07449,-14.59288 2.07449,-14.59288 v 0 c -0.21875,-1.54867 -0.38502,-3.1031 -0.54739,-4.65865 -0.30365,-2.70453 -0.62532,-5.40711 -0.99307,-8.10378 -0.40608,-2.9608 -0.82917,-5.91983 -1.33986,-8.8647 -0.54117,-3.0674 -1.1192,-6.12858 -1.79003,-9.17062 -0.64698,-2.93487 -1.3317,-5.86091 -2.03066,-8.78381 -0.54787,-2.41512 -1.05538,-4.84006 -1.47991,-7.28018 -0.31846,-1.86091 -0.60294,-3.73038 -0.77448,-5.61112 -0.48564,-8.3551 -0.14588,19.50728 -0.0594,10.79608 0.0203,-0.78455 -0.0733,-1.56447 0.2932,-2.29082 0.50527,-0.77662 1.8539,-0.38736 2.59569,-0.30866 2.1441,0.56078 4.07722,1.60907 5.91161,2.84331 2.17166,1.44386 4.2837,2.97265 6.33252,4.58675 1.1989,0.92451 2.4038,1.84283 3.55413,2.82788 z" />
    <path
       style="fill:#ff0000;fill-opacity:0.929907"
       id="path18"
       d="m 229.97329,255.28846 c 0.11494,-2.16037 0.41281,-4.30232 0.712,-6.44356 0.58061,-3.98992 1.37926,-7.94434 2.20554,-11.8894 0.79528,-3.76012 1.5785,-7.52244 2.20134,-11.31538 0.51241,-3.15877 0.73711,-6.35156 0.91074,-9.54354 0.46929,-7.69558 0.27198,-15.40115 0.2636,-23.10882 0.0472,-2.86743 -0.23191,-5.70546 -0.71396,-8.52776 -0.52823,-2.65346 -1.27846,-5.28074 -2.31573,-7.78093 -0.85606,-1.98822 -1.79809,-3.93625 -2.61507,-5.94195 -1.97902,-5.04088 1.29727,-17.00185 -2.21626,13.00661 -0.0115,1.05105 0.0441,2.10093 0.0546,3.15449 0.003,0.30167 0.007,0.60334 0.01,0.90501 0.0101,0.97737 0.0117,1.1398 0.0191,2.14031 0.003,0.39796 0.008,1.59185 0.008,1.19388 -4.4e-4,-14.28762 0.0509,-17.55852 -0.0271,-11.87666 -0.0483,3.02585 -0.25971,6.04526 -0.50386,9.06055 -0.26815,3.36857 -0.82022,6.70054 -1.49015,10.00946 -0.71878,3.32814 -1.72449,6.58389 -2.7284,9.83434 -1.02481,3.2344 -2.21233,6.41406 -3.41251,9.58654 -1.2237,3.24286 -2.48524,6.4713 -3.7481,9.69906 -1.26626,3.27366 -2.54576,6.54206 -3.71801,9.85079 -1.24317,3.51808 -2.19409,7.12373 -2.92905,10.77899 -0.52281,2.7099 -0.78516,5.47086 -0.76742,8.23138 0.10658,16.58337 -0.38741,11.08822 0.40677,18.78683 0.51803,4.66395 1.39226,9.27967 2.54542,13.82587 1.05769,4.35386 2.35834,8.63759 3.78801,12.8818 0.70114,1.98928 1.40062,3.97912 2.09499,5.97078 0,0 1.77002,-14.28341 1.77002,-14.28341 v 0 c -0.6981,-1.9717 -1.40381,-3.94081 -2.07701,-5.92122 -1.38791,-4.22483 -2.63509,-8.4929 -3.6771,-12.81735 -1.05751,-4.54268 -1.91105,-9.13697 -2.33826,-13.78596 -0.51036,-6.40363 -0.13739,-2.58254 -0.27515,9.51982 -0.008,0.71353 -0.0343,-1.42711 -0.0229,-2.14059 0.032,-1.99868 0.18112,-4.00625 0.54599,-5.973 0.63002,-3.62943 1.53731,-7.19953 2.72232,-10.68951 1.13268,-3.31169 2.40269,-6.57079 3.66224,-9.83587 1.27271,-3.22387 2.52547,-6.45569 3.76805,-9.69126 1.20188,-3.18095 2.4202,-6.35658 3.49988,-9.58203 1.02902,-3.27192 2.03891,-6.55162 2.8653,-9.88182 0.69997,-3.30199 1.35513,-6.61324 1.67193,-9.97873 0.25843,-2.99107 0.50988,-5.98323 0.6108,-8.98478 0.17343,-7.15749 0.10223,-14.32062 0.005,-21.47925 -0.0497,-1.14672 -0.0318,-2.44951 -0.70043,-3.43264 -1.77276,12.6624 -3.91873,10.68554 -1.13574,16.64706 0.88202,1.9126 1.82098,3.80226 2.57095,5.77226 0.87702,2.50015 1.63228,5.05358 2.01086,7.682 0.37328,2.81951 0.54028,5.64918 0.5113,8.49474 0.0223,-25.36478 0.164,-11.57672 -0.20269,-5.73636 -0.14703,3.21116 -0.30233,6.42601 -0.746,9.61306 -0.56918,3.82857 -1.29789,7.6264 -2.1125,11.41063 -0.82057,3.89976 -1.63129,7.80267 -2.31419,11.72925 -0.31499,1.98509 -0.68312,3.97333 -0.85239,5.97574 z" />
    <path
       style="fill:#ff0000;fill-opacity:0.929907"
       id="path19"
       d="m 211.21511,292.65593 c -2.25045,-0.29947 -4.47994,-0.73069 -6.70773,-1.16424 -3.03013,-0.57075 -6.07934,-1.02847 -9.12922,-1.47841 -2.08434,-0.28839 -4.17493,-0.70583 -6.28733,-0.69647 -1.07191,18.72745 -4.24657,12.36966 3.21236,17.21023 2.61777,1.80996 5.09089,3.81386 7.55531,5.82407 2.76295,2.22384 5.26228,4.73616 7.65041,7.35053 2.47948,2.82399 4.75849,5.8113 7.03776,8.79618 1.43811,1.76983 0.72085,0.9062 2.15012,2.59227 0,0 1.25921,-14.49495 1.25921,-14.49495 v 0 c -1.39032,-1.63279 -0.69361,-0.79514 -2.08821,-2.51452 -2.32551,-2.98467 -4.64693,-5.9763 -7.16395,-8.80419 -2.44818,-2.63667 -5.04065,-5.13339 -7.85561,-7.38044 -2.52841,-2.05727 -5.03786,-4.14441 -7.6823,-6.05246 -0.82532,-0.5616 -1.67355,-1.09395 -2.4943,-1.66147 -0.17559,-0.12141 -0.3934,-0.20672 -0.51272,-0.38373 -0.0531,-0.0788 0.0721,-0.37207 0.0672,-0.27713 -0.25443,4.92992 -0.54406,9.85797 -0.81609,14.78696 0.84058,-0.72599 4.66973,0.29268 5.7569,0.2729 3.02835,0.43742 6.05383,0.90452 9.05021,1.52919 2.23714,0.46462 4.48953,0.88501 6.68728,1.5155 z" />
  </g>
  <metadata
     id="metadata1">
    <rdf:RDF>
      <cc:Work>
        <dc:format>image/svg+xml</dc:format>
        <dc:type
           rdf:resource="http://purl.org/dc/dcmitype/StillImage" />
        <cc:license
           rdf:resource="http://creativecommons.org/publicdomain/zero/1.0/" />
        <dc:publisher>
          <cc:Agent
             rdf:about="http://openclipart.org/">
            <dc:title>Openclipart</dc:title>
          </cc:Agent>
        </dc:publisher>
        <dc:title>sticky note (post-it)</dc:title>
        <dc:date>2010-03-25T17:58:49</dc:date>
        <dc:description>A realistic looking sticky note with a slight curl on one corner. Useful for displaying in-your-face notifications or reminders that need to be accepted or dismissed by a user. Rotate it slightly for a nice effect, or leave it upright and overlay HTML text directly on top -- see the sample text for color ideas.</dc:description>
        <dc:source>https://openclipart.org/detail/34075/sticky-note-(post-it)-by-matthewgarysmith</dc:source>
        <dc:creator>
          <cc:Agent>
            <dc:title>matthewgarysmith</dc:title>
          </cc:Agent>
        </dc:creator>
        <dc:subject>
          <rdf:Bag>
            <rdf:li>note</rdf:li>
            <rdf:li>post it</rdf:li>
            <rdf:li>post-it</rdf:li>
            <rdf:li>reminder</rdf:li>
            <rdf:li>sticky</rdf:li>
            <rdf:li>sticky note</rdf:li>
            <rdf:li>yellow</rdf:li>
          </rdf:Bag>
        </dc:subject>
      </cc:Work>
      <cc:License
         rdf:about="http://creativecommons.org/publicdomain/zero/1.0/">
        <cc:permits
           rdf:resource="http://creativecommons.org/ns#Reproduction" />
        <cc:permits
           rdf:resource="http://creativecommons.org/ns#Distribution" />
        <cc:permits
           rdf:resource="http://creativecommons.org/ns#DerivativeWorks" />
      </cc:License>
    </rdf:RDF>
  </metadata>
</svg>
