<?xml version="1.0" encoding="UTF-8" standalone="no"?>
<!-- Created with Inkscape (http://www.inkscape.org/) -->

<svg
   id="svg2"
   viewBox="0 0 358.60585 331.68079"
   version="1.0"
   width="358.60587"
   height="331.68079"
   xmlns:xlink="http://www.w3.org/1999/xlink"
   xmlns="http://www.w3.org/2000/svg"
   xmlns:svg="http://www.w3.org/2000/svg"
   xmlns:rdf="http://www.w3.org/1999/02/22-rdf-syntax-ns#"
   xmlns:cc="http://creativecommons.org/ns#"
   xmlns:dc="http://purl.org/dc/elements/1.1/">
  <defs
     id="defs4">
    <linearGradient
       id="linearGradient3168">
      <stop
         id="stop3170"
         style="stop-color:#f7ec9a"
         offset="0" />
      <stop
         id="stop3176"
         style="stop-color:#f6ea8d"
         offset=".13401" />
      <stop
         id="stop3180"
         style="stop-color:#f5e98a"
         offset=".45674" />
      <stop
         id="stop3178"
         style="stop-color:#f8ed9d"
         offset=".80934" />
      <stop
         id="stop3172"
         style="stop-color:#f5e98a"
         offset="1" />
    </linearGradient>
    <filter
       id="filter4781"
       x="-0.042757749"
       y="-0.046095167"
       width="1.0855155"
       height="1.0921903">
      <feGaussianBlur
         id="feGaussianBlur4783"
         stdDeviation="5.4601647" />
    </filter>
    <linearGradient
       id="linearGradient4847"
       y2="608.08002"
       xlink:href="#linearGradient3168"
       gradientUnits="userSpaceOnUse"
       x2="200.96001"
       gradientTransform="matrix(1.1054013,0.00466131,-0.00470861,1.0942987,-202.35899,-370.8208)"
       y1="363.75"
       x1="461.17999" />
  </defs>
  <g
     id="layer1"
     transform="translate(14.510731,-12.854996)">
    <rect
       id="rect4857"
       style="opacity:0.44783;fill-opacity:0"
       height="314.29001"
       width="336.42999"
       y="12.854996"
       x="1.7850037" />
    <path
       id="path4843"
       style="opacity:0.44783;fill:#000000;filter:url(#filter4781)"
       d="m 111.75,670.22 291.37,-1.42 5.86,284.29 c 0,0 -228.99,-3.84 -306.48,-0.73 7.35,-70.31 9.25,-282.14 9.25,-282.14 z"
       transform="matrix(1.0231,0.0042596,-0.0043582,0.99999,-88.113334,-642.02623)" />
    <path
       id="path4845"
       style="fill:url(#linearGradient4847);stroke-width:1.09985"
       d="M 2.0649243,14.857688 338.41981,16.277007 337.08226,327.36732 c 0,0 -290.237079,6.31417 -329.9545468,-17.02745 C -1.1628801,270.87907 2.0649243,14.854405 2.0649243,14.854405 Z" />
    <path
       style="fill:#ff761c;fill-opacity:0.718069"
       id="path7"
       d="m 306.18719,332.65258 c 0.84596,-0.99227 1.89243,-1.80852 2.89578,-2.63693 1.64771,-1.34016 3.35648,-2.59889 4.81868,-4.14422 1.84616,-1.98582 3.52943,-4.11993 5.13268,-6.30467 1.99953,-3.04119 3.25813,-6.46506 4.36042,-9.91071 1.40974,-4.28454 2.46281,-8.67384 3.54902,-13.0484 1.20663,-4.50737 2.16144,-9.06935 2.98967,-13.65931 0.90309,-5.26657 1.52182,-10.57186 2.08452,-15.8835 0.67031,-6.31361 1.00868,-12.65162 1.14835,-18.99692 0.19992,-6.56625 0.18587,-13.13362 -0.19001,-19.69222 -0.43467,-6.10752 -1.17082,-12.18835 -2.03666,-18.2481 -0.87303,-6.192 -2.89747,-12.09682 -5.06166,-17.93303 -2.00901,-5.38108 -4.46222,-10.57401 -7.07755,-15.68213 -0.40634,-0.7617 -0.81268,-1.5234 -1.21902,-2.28511 0,0 -35.67185,-23.25164 -35.67185,-23.25164 v 0 c 0.43895,0.76144 0.8779,1.52289 1.31686,2.28434 2.84151,5.02906 5.51879,10.15393 7.73337,15.495 2.25914,5.53059 4.36677,11.14417 5.39603,17.05515 1.01934,6.01941 1.97324,12.0573 2.51254,18.14165 0.52328,6.46309 0.70349,12.9498 0.54126,19.43331 -0.23995,6.14452 -0.53221,12.29099 -1.38113,18.38815 -0.63346,5.1414 -1.33084,10.27796 -2.28088,15.37185 -0.84798,4.49526 -1.79568,8.97123 -2.8636,13.41975 -1.05833,4.21283 -2.17219,8.41306 -3.62112,12.51196 -1.10287,2.93969 -2.191,5.92496 -4.08173,8.47017 -1.43662,1.97779 -2.95765,3.9085 -4.77752,5.55258 -1.52158,1.25103 -3.04508,2.49999 -4.66835,3.61948 -0.91451,0.62476 -2.11235,1.56415 -3.20666,1.72955 z" />
    <path
       style="fill:#ff2a2a"
       id="path4"
       d="m 296.56819,294.47831 c 0.87182,-3.02124 2.47325,-5.77797 3.92588,-8.54946 1.715,-3.2201 3.20051,-6.55162 4.64525,-9.89909 1.67477,-3.84807 3.14478,-7.77838 4.48485,-11.75395 1.55342,-4.47348 2.4473,-9.11184 3.07109,-13.79319 0.64817,-5.34849 0.78975,-10.73671 0.69262,-16.1178 -0.12818,-5.86365 -1.12209,-11.64572 -2.26718,-17.38147 -1.12271,-5.79215 -2.871,-11.42244 -4.82685,-16.97893 -1.77898,-5.0035 -4.02486,-9.8174 -6.41774,-14.55147 -1.92854,-3.77536 -4.11143,-7.41053 -6.33892,-11.01463 -1.22436,-1.96185 -2.46941,-3.91092 -3.63184,-5.91045 -0.34585,-0.58423 -0.65919,-1.186 -0.95701,-1.79567 -0.0411,-0.0893 -0.0782,-0.18026 -0.1153,-0.27124 -0.68464,1.05807 -0.59552,0.67749 0.0906,0.92593 1.35963,0.49558 2.65153,1.14856 3.92843,1.82421 3.31437,1.89293 -2.89987,-1.68337 -4.35829,-2.51022 -0.31708,-0.17978 0.62465,0.37595 0.93296,0.57039 0.98618,0.62192 1.93554,1.29222 2.88185,1.97242 2.08536,1.52829 4.03922,3.2225 5.95055,4.96033 2.39365,2.21689 4.6038,4.62037 6.74731,7.07675 2.25856,2.59416 4.29671,5.36556 6.24363,8.1976 1.90216,2.78931 3.59455,5.71065 5.2045,8.67559 1.31689,2.46871 2.56916,4.97099 3.79135,7.48768 1.0357,2.14763 2.02738,4.31636 2.98782,6.4986 0.94329,2.15024 1.85468,4.31402 2.76048,6.48024 0.90205,2.13689 1.76051,4.29134 2.54052,6.47575 0.67098,1.91529 1.1717,3.88269 1.65142,5.85258 0.42067,1.82092 0.84732,3.64036 1.28914,5.45628 0.41822,1.66665 0.8013,3.34163 1.15889,5.02224 0.33395,1.49758 0.53727,3.01659 0.66052,4.54449 0.10754,1.61211 0.11069,3.22861 0.11826,4.84355 10e-4,1.66741 -0.0123,3.33482 -0.004,5.00222 -0.003,1.69625 0.14075,3.38718 0.26998,5.07701 0.12898,1.55531 0.18172,3.11503 0.21572,4.67482 0.0327,1.77669 0.0339,3.55374 0.0356,5.33066 0.007,1.72133 -0.0169,3.44253 -0.0226,5.16379 0.006,1.78684 0.0226,3.5736 0.026,5.36046 -0.002,1.74898 -0.0124,3.49795 -0.0285,5.24685 0.005,1.47825 -0.17203,2.94569 -0.38289,4.4059 -0.21653,1.33613 -0.51569,2.65702 -0.80263,3.9793 -0.28348,1.27625 -0.52799,2.56046 -0.72656,3.85256 -0.17186,1.15887 -0.31512,2.32161 -0.50915,3.47707 -0.19464,1.19302 -0.47248,2.36938 -0.77455,3.53902 -0.27103,1.03599 -0.63593,2.04168 -1.02867,3.03655 -0.29854,0.72962 -0.65033,1.43612 -1.03147,2.12573 -0.28635,0.53737 -0.63131,1.03865 -0.97199,1.54201 -0.20679,0.30601 -0.47386,0.56191 -0.71289,0.84039 -0.15158,0.15412 -0.3215,0.288 -0.48236,0.43226 -0.0981,0.0824 -0.10112,0.12454 -0.17534,0.26844 0,0 6.64493,3.58229 6.64493,3.58229 v 0 c -0.14875,0.23963 -0.0998,0.16269 -0.046,0.095 0.15863,-0.16736 0.32832,-0.32414 0.47948,-0.49863 0.26882,-0.29586 0.51107,-0.61269 0.72811,-0.94879 0.34508,-0.52665 0.69558,-1.05067 0.98302,-1.61222 0.38844,-0.72366 0.7369,-1.46746 1.03656,-2.23259 0.3914,-1.02886 0.75627,-2.06679 1.03554,-3.13269 0.30195,-1.18835 0.60159,-2.37858 0.80363,-3.58896 0.2086,-1.16071 0.36608,-2.32932 0.51382,-3.49919 0.17072,-1.28129 0.40512,-2.55257 0.68653,-3.81428 0.29254,-1.34008 0.58554,-2.68079 0.80744,-4.03485 0.21797,-1.49387 0.41853,-2.99399 0.40512,-4.50755 0.006,-1.75863 -0.0223,-3.51721 -0.0183,-5.27587 0.003,-1.77784 0.0203,-3.55557 0.0268,-5.33338 -0.005,-1.72816 -0.0269,-3.45627 -0.0181,-5.18449 0.003,-1.77448 0.01,-3.54897 0.004,-5.32344 -0.0149,-1.57497 -0.0472,-3.15101 -0.19734,-4.72001 -0.14869,-1.67216 -0.2956,-3.34759 -0.29691,-5.0277 -0.009,-1.66802 -0.002,-3.33606 -0.005,-5.0041 0.002,-1.62371 0.0137,-3.24862 -0.0584,-4.87113 -0.10156,-1.56446 -0.3152,-3.11568 -0.64587,-4.64914 -0.36244,-1.69084 -0.74477,-3.37726 -1.17058,-5.05344 -0.45564,-1.81732 -0.89954,-3.63732 -1.31132,-5.46517 -0.4911,-1.9972 -0.99431,-3.99347 -1.66604,-5.93948 -0.77594,-2.20718 -1.64995,-4.37625 -2.56532,-6.52921 -0.8934,-2.16438 -1.77592,-4.33334 -2.71906,-6.47678 -0.96527,-2.20546 -1.98999,-4.38446 -3.0367,-6.55234 -1.24314,-2.53865 -2.5182,-5.06186 -3.85596,-7.55217 -1.63819,-2.98853 -3.35457,-5.93414 -5.24869,-8.76939 -1.92064,-2.85923 -3.93767,-5.65608 -6.19274,-8.26408 -2.10828,-2.45198 -4.27773,-4.8562 -6.60588,-7.10289 -1.8775,-1.75705 -3.80918,-3.45687 -5.86003,-5.0109 -3.68257,-2.73954 -7.64209,-5.05211 -11.7168,-7.17693 -1.36038,-0.69686 -2.73689,-1.3693 -4.17806,-1.88526 -0.76205,-0.25484 -0.49715,-0.47665 -1.09568,0.52961 0.0549,0.0974 0.1098,0.19473 0.16159,0.29381 0.33009,0.67005 0.73575,1.30079 1.11785,1.94144 1.29759,2.04092 2.64463,4.04923 3.96997,6.07212 2.32547,3.60881 4.59841,7.25492 6.59178,11.06083 2.45156,4.71654 4.73057,9.52526 6.56031,14.52197 2.00541,5.52766 3.78985,11.13595 4.91851,16.91727 1.14236,5.68936 2.12385,11.42631 2.25354,17.2435 0.0935,5.33669 -0.0675,10.67964 -0.73723,15.98071 -0.64189,4.62694 -1.54745,9.20813 -3.11688,13.62198 -1.34452,3.94927 -2.80089,7.86129 -4.52455,11.66319 -1.48354,3.3107 -2.98442,6.61645 -4.65467,9.83822 -1.47686,2.79593 -2.98868,5.57401 -4.38314,8.41259 z" />
    <path
       style="fill:#ff0000"
       id="path5"
       d="m -3.8060042,254.50362 c 1.1597398,4.2233 1.9966721,8.53961 2.7448373,12.85395 0.45602513,3.4872 0.89414464,6.97325 1.57818773,10.42479 0.51648927,2.9352 1.08070217,5.82567 2.00342527,8.66322 1.2279413,3.17087 2.7778425,6.20185 4.3045751,9.2357 1.8649499,3.81259 4.1488838,7.38504 6.7095948,10.76195 3.893891,4.39883 8.467835,8.13694 12.962337,11.89932 6.198519,4.59938 13.180696,8.21093 19.938271,11.81645 1.134462,0.6053 2.375812,0.98485 3.573181,1.45356 3.336221,1.30598 4.459897,1.66432 7.886757,2.86585 6.625316,2.49791 13.300197,4.85279 19.985107,7.18076 5.124529,1.50413 10.479256,1.9799 15.778129,2.45444 6.635312,0.38434 13.285692,0.54028 19.928802,0.32416 7.02576,-0.29996 14.04918,-0.48519 21.06689,-0.93277 5.82948,-0.51484 11.62865,-1.29456 17.37092,-2.42137 4.88747,-0.84255 9.65494,-2.23033 14.48691,-3.32635 4.29822,-0.96754 8.68212,-1.3926 13.02574,-2.06959 3.21358,-0.7505 6.38228,-1.86002 9.40552,-3.18835 1.71068,-0.69594 3.052,-1.75129 3.83675,-3.4253 0.49579,-1.36962 0.53438,-2.83189 0.57944,-4.27079 0,0 -13.1765,-6.75728 -13.1765,-6.75728 v 0 c -0.0259,1.24382 -0.023,2.51056 -0.35921,3.71831 -0.56219,1.31985 -1.85599,1.99949 -3.09425,2.61401 -2.89346,1.28101 -5.86697,2.44497 -8.99435,3.00526 -4.34389,0.65259 -8.68168,1.33863 -12.9832,2.23805 -4.75456,1.1595 -9.47624,2.45821 -14.28412,3.38759 -5.6961,1.01459 -11.42537,1.86924 -17.1942,2.34591 -6.95699,0.51171 -13.92901,0.75121 -20.90042,0.97599 -6.687455,0.10179 -13.38784,-0.0596 -20.054311,-0.62165 -5.267413,-0.53072 -10.579183,-1.12962 -15.639636,-2.75962 -6.540743,-2.13888 -13.028028,-4.4399 -19.483725,-6.82295 -2.692408,-0.98731 -5.313871,-1.90993 -7.955298,-3.02521 -1.232865,-0.52055 -4.758651,-2.41397 -3.660302,-1.64941 2.848261,1.98269 5.955391,3.5649 8.944644,5.32785 0.875967,0.51661 -1.747166,-1.04186 -2.60458,-1.58871 -0.799395,-0.50985 -1.57652,-1.0538 -2.36478,-1.5807 -4.45012,-3.66642 -8.922173,-7.34811 -12.902744,-11.53038 -2.543658,-3.28529 -4.811199,-6.76471 -6.71231,-10.46435 -1.469721,-2.96848 -2.815793,-5.98447 -4.205965,-8.98883 -0.506142,-1.3453 -1.049894,-2.77106 -1.345314,-4.1818 -0.296921,-1.4179 -0.266669,-2.915 -0.733349,-4.30517 -0.765226,-3.49378 -1.401392,-7.015 -1.945309,-10.55017 -0.731753,-4.18759 -1.617656,-8.35112 -2.090773,-12.57633 z" />
    <circle
       id="path9"
       style="fill:#ff6600;stroke:#000000"
       cx="22.016243"
       cy="176.67438"
       r="1.3822138" />
    <path
       style="fill:#ff6600;fill-opacity:0.772586"
       id="path11"
       d="m 178.75433,318.65295 c -16.3251,0.47865 -32.67891,-0.56721 -48.9943,0.19813 -2.61809,0.10082 -5.23753,0.16103 -7.85682,0.22022 -2.76966,0.0665 -5.53975,0.11307 -8.30985,0.15682 -3.04274,0.002 -6.0799,0.16197 -9.11969,0.27106 -3.71657,0.177 -7.415715,0.56755 -11.114678,0.95341 -3.737391,0.44795 -7.428284,1.16585 -11.124397,1.86164 -3.746442,0.77883 -7.488734,1.57794 -11.225316,2.40305 -3.852414,0.92189 -7.71851,1.78308 -11.659181,2.2154 -0.575936,0.0146 -1.152349,0.0713 -1.727809,0.0437 -0.550952,-0.0264 -2.193547,-0.20288 -1.641968,-0.20531 13.843858,-0.0608 27.68798,0.046 41.531962,0.0302 0.496207,-5.6e-4 -0.992272,-0.0337 -1.486692,-0.0758 -1.0416,-0.0886 -1.815787,-0.23624 -2.846454,-0.40528 -2.938042,-0.70074 -5.447381,-2.42598 -7.897064,-4.11613 -2.6367,-1.81161 -5.116395,-3.83802 -7.543893,-5.91774 -2.36584,-2.08891 -4.725417,-4.18615 -7.011479,-6.36251 -2.08158,-1.98883 -4.018542,-4.11054 -5.812765,-6.35997 -1.844792,-2.43599 -3.534418,-4.98545 -5.262848,-7.50458 -1.754473,-2.62674 -3.4398,-5.29931 -5.055408,-8.01354 -1.676546,-2.69178 -3.149113,-5.49761 -4.492938,-8.3677 -1.387098,-2.90487 -2.661281,-5.85687 -3.841625,-8.85113 -1.145804,-3.00083 -2.293202,-5.9991 -3.281566,-9.05618 -0.16295,-0.54932 -0.325899,-1.09863 -0.488848,-1.64795 0,0 -43.48578117,1.24188 -43.48578117,1.24188 v 0 c 0.16444012,0.56606 0.32888024,1.13212 0.49332035,1.69818 0.92103735,3.17931 1.84075922,6.36731 3.12486722,9.42344 1.236345,3.05547 2.4982301,6.10354 3.9076781,9.08397 1.3708514,2.987 2.7694655,5.96672 4.3854445,8.83068 1.662501,2.77118 3.442249,5.46496 5.178947,8.18913 1.657599,2.64561 3.369766,5.25673 5.173811,7.80537 1.784732,2.47841 3.627665,4.92743 5.848687,7.03847 2.331114,2.27881 4.784418,4.41754 7.229879,6.57162 2.438269,2.15197 4.799941,4.38836 7.397182,6.35346 2.605722,1.9163 5.225511,3.83177 8.037007,5.43945 1.242812,0.60055 3.148942,1.49461 4.560288,1.51378 15.57362,0.21158 32.254886,2.57847 48.019507,-0.24526 3.82152,-0.77555 7.61104,-1.69479 11.42887,-2.48796 3.8119,-0.77722 7.61981,-1.57706 11.45139,-2.2532 3.64158,-0.6546 7.30553,-1.19654 10.99368,-1.51015 3.72884,-0.34026 7.46783,-0.57668 11.21232,-0.64492 3.16938,-0.0812 6.33919,-0.0979 9.50905,-0.15414 2.78719,-0.0559 5.57436,-0.113 8.36132,-0.1792 2.6644,-0.0717 5.32865,-0.15225 7.99353,-0.2041 17.80077,-0.11734 -58.20052,-0.48752 -39.22048,0.0935 z" />
    <path
       style="fill:#ff6600"
       id="path12"
       d="m 140.46261,308.47967 c -0.0858,0.0656 -0.14993,0.18507 -0.25727,0.19683 -0.76917,0.0843 -2.8727,-1.46245 -3.4757,-1.85124 -2.36683,-1.61138 -4.73437,-3.22175 -7.09409,-4.84378 -2.83112,-1.89052 -5.58082,-3.89804 -8.36146,-5.86095 -2.9788,-2.00906 -5.88229,-4.11076 -8.68758,-6.35543 -2.75258,-2.23336 -5.38746,-4.60746 -7.98675,-7.01601 -2.81434,-2.64392 -5.533508,-5.36927 -8.069987,-8.28098 -2.468501,-2.81498 -4.732432,-5.79707 -7.002448,-8.77142 -12.904559,-16.01025 -3.325177,-5.25959 -49.009774,-3.55435 -0.792108,3.57604 -1.344134,7.20151 -1.875575,10.82402 -0.739342,3.90122 -0.429466,7.49673 0.503868,11.31873 1.341541,4.55721 4.167755,8.13495 7.565557,11.33744 4.05702,3.60056 8.906488,6.0551 13.753489,8.39415 4.557782,2.15887 9.18267,4.17182 13.887363,5.98783 4.572844,1.74544 9.228762,3.26199 13.9126,4.6784 4.46741,1.30146 8.980793,2.43832 13.510177,3.50133 3.96859,0.92977 7.95807,1.7651 11.95114,2.58182 0.59408,0.11418 1.18815,0.22835 1.78223,0.34253 0,0 42.96924,-6.09768 42.96924,-6.09768 v 0 c -0.61763,-0.0828 -1.23526,-0.16554 -1.85289,-0.24832 -4.11611,-0.66192 -8.19865,-1.51413 -12.27981,-2.36216 -4.56254,-0.97372 -9.10956,-2.02432 -13.61893,-3.22236 -4.69603,-1.29578 -9.36627,-2.69692 -13.95557,-4.33483 -4.75873,-1.74424 -9.47657,-3.59782 -14.1153,-5.64257 -4.587272,-2.04122 -9.204721,-4.13293 -13.20883,-7.21347 -2.985701,-2.43362 -5.62021,-5.05336 -6.903813,-8.79191 -0.880333,-3.24541 -1.019515,-6.24285 -0.412854,-9.57255 0.237066,-1.50223 0.767463,-6.30492 2.057869,-7.2345 0.176064,-0.12683 0.432278,0.0384 0.648416,0.0576 -14.516041,0.26316 -29.029928,0.87145 -43.548122,0.78948 -0.418006,-0.002 0.357033,-0.81289 0.713446,-1.03131 1.025042,-0.62815 3.383347,2.03767 4.030677,2.58517 2.65945,2.75351 4.937723,5.8346 7.426507,8.73892 2.532939,2.9951 4.975128,6.07199 7.885961,8.71945 2.584973,2.5583 5.199052,5.09026 8.035925,7.37318 2.793134,2.28939 5.530844,4.66177 8.541546,6.66703 2.738278,1.91514 5.490168,3.81003 8.137239,5.8522 2.207158,1.63146 4.473195,3.18055 6.684926,4.80574 0.993738,0.85011 2.242715,1.70171 2.805008,2.90535 z" />
    <path
       style="fill:#ff6600;fill-opacity:0.425234"
       id="path13"
       d="m 279.48754,286.76322 c -1.04369,-0.87606 -1.8821,-2.00539 -2.6706,-3.11328 -1.19888,-1.58355 -2.38336,-3.17688 -3.55683,-4.78145 -1.2628,-1.83232 -2.54892,-3.64701 -3.75013,-5.52089 -1.5425,-2.18031 -2.78429,-4.53837 -3.9433,-6.93806 -1.35989,-2.86799 -2.55493,-5.80921 -3.69381,-8.77058 -1.00487,-2.76879 -1.88283,-5.58072 -2.71522,-8.40537 -0.70088,-2.43199 -1.18291,-4.9385 -1.43016,-7.45834 -0.24269,-1.92761 -0.0243,-3.94628 -0.84235,-5.75241 -1.18495,-1.38763 -3.2712,-1.33081 -4.93927,-1.09084 -1.29471,0.2149 -2.31331,0.97827 -3.11018,1.99101 -0.95283,1.33761 -1.48748,2.92727 -1.89367,4.50444 -3.21342,16.26036 -1.75016,33.1954 -0.57672,49.69576 0.21986,2.35035 0.66171,4.67419 1.3347,6.93546 0.92136,2.6029 2.31049,4.965 3.90789,7.20078 1.59235,2.39416 3.7164,4.44481 5.96663,6.22158 2.58724,2.10655 5.73797,3.23254 8.85659,4.29092 3.07291,1.0645 6.24251,1.80105 9.39865,2.56663 2.90771,0.69468 5.85353,1.19914 8.79863,1.70254 2.87997,0.4864 5.76036,0.95657 8.67159,1.20237 3.47601,0.17621 6.95277,0.0485 10.42648,-0.0954 1.79024,-0.0889 3.58173,-0.14456 5.37259,-0.21891 0,0 -0.26218,-43.52292 -0.26218,-43.52292 v 0 c -1.7554,0.14005 -3.5117,0.26854 -5.27282,0.31214 -3.28867,0.10945 -6.5917,0.10139 -9.86119,-0.31806 -2.79208,-0.28091 -5.56895,-0.68894 -8.33763,-1.14445 -2.8623,-0.48316 -5.71113,-1.04311 -8.54579,-1.66867 -2.97693,-0.64708 -5.95622,-1.3398 -8.83037,-2.36138 -2.66748,-1.10198 -5.17414,-2.43107 -7.21452,-4.52338 -1.80853,-1.8639 -3.49418,-3.7992 -4.694,-6.12704 -1.15597,-2.26065 -2.09516,-4.64022 -2.42176,-7.17587 -0.31962,-2.31771 -0.56964,-4.6467 -0.5019,-6.99117 0.18445,-17.37027 -0.0209,59.89428 -0.0737,38.02652 0.14729,-1.335 0.29916,-2.65693 0.57707,-3.97382 0.10734,-0.45821 0.31407,-1.31255 -0.24447,-1.45139 -0.65678,-0.23768 -2.13629,-0.30931 -2.49947,0.37487 -0.15711,1.697 0.39003,3.41018 0.62467,5.07523 0.5762,2.4577 1.22622,4.89505 2.08016,7.27285 0.94168,2.81213 1.92369,5.61343 3.08571,8.34352 1.26452,2.93328 2.58725,5.84219 4.05108,8.68233 1.34547,2.57797 2.74694,5.12645 4.41926,7.51114 1.29958,1.88098 2.56899,3.78384 3.91232,5.6338 1.18352,1.65209 2.41715,3.26678 3.55702,4.94968 0.90984,1.21942 1.84103,2.46163 2.40667,3.88473 z" />
    <path
       style="fill:#ff6600;fill-opacity:0.630841"
       id="path14"
       d="m 300.89075,280.45654 c -0.64296,0.73226 -1.81293,1.07075 -2.71446,1.389 -1.8738,0.55449 -3.78786,0.95078 -5.67813,1.44226 -2.19776,0.51184 -4.41784,0.91371 -6.64124,1.29464 -2.33874,0.36744 -4.68773,0.65925 -7.01864,1.07515 -2.66449,0.52487 -5.34737,0.93541 -8.05012,1.20009 -2.49748,0.23412 -4.99974,0.20565 -7.49727,0.0107 -2.2811,-0.19672 -4.54192,-0.56093 -6.78087,-1.03336 -1.81783,-0.39823 -3.55962,-1.0384 -5.14694,-2.00997 -1.13029,-1.0377 -2.19876,-2.14321 -3.17612,-3.32595 -0.92743,-1.09076 -1.42191,-2.447 -1.99588,-3.74206 -0.40911,-1.29087 -0.47179,-2.64999 -0.64693,-3.98463 -0.22999,-1.39199 -0.0884,-2.80083 -0.0872,-4.20288 1.58931,-15.05845 0.075,-0.95044 0.0231,42.52114 -3.1e-4,0.26086 0.002,-0.52171 0.002,-0.78257 0.003,-0.84336 0.0633,-1.66243 0.14711,-2.50145 0.1989,-1.84783 0.31913,-3.6949 0.64598,-5.52697 0.35377,-2.15357 0.95861,-4.25835 1.48805,-6.37415 0.54237,-1.86964 1.11795,-3.73312 1.83047,-5.54556 0.63766,-1.7998 1.47177,-3.52765 2.32745,-5.23282 0.65384,-1.44605 1.41567,-2.83748 2.18209,-4.22567 0,0 -4.59937,-44.05098 -4.59937,-44.05098 v 0 c -0.86341,1.38891 -1.7237,2.78195 -2.50834,4.21728 -0.85673,1.77444 -1.76898,3.52315 -2.65986,5.28077 -0.77249,1.88574 -1.61808,3.74171 -2.21344,5.69601 -0.73416,2.10761 -1.18274,4.29024 -1.87691,6.41036 -0.41904,1.7797 -0.98506,3.53124 -1.08627,5.36915 -1.96205,16.15087 -2.99702,32.5246 -0.49994,48.81232 0.11815,1.46707 0.42065,2.89535 0.81563,4.31271 0.41949,1.48075 1.03009,2.88199 1.94413,4.13125 0.90083,1.39835 1.93895,2.658 3.19728,3.75661 1.43018,1.29728 2.91903,2.56104 4.71729,3.32067 2.04225,0.8364 4.16485,1.43722 6.34266,1.80718 2.4356,0.42135 4.88104,0.79075 7.35266,0.92133 2.74151,0.11694 5.49104,0.19071 8.21989,-0.17128 2.76922,-0.31179 5.53964,-0.62631 8.30094,-0.99814 2.33715,-0.34327 4.67088,-0.70358 7.00981,-1.03469 2.30541,-0.34707 4.60389,-0.74313 6.88634,-1.21964 1.96501,-0.3497 3.90969,-0.8078 5.87511,-1.15835 1.22243,-0.23024 2.43569,-0.51441 3.66463,-0.69211 z" />
    <path
       style="fill:#ff0000"
       id="path1"
       d="m 110.52882,300.54041 c -1.37743,-1.35414 -2.68479,-2.77756 -3.96857,-4.22009 -1.58422,-1.79127 -3.09561,-3.645 -4.60033,-5.50299 -1.82381,-2.22682 -3.552788,-4.52764 -5.266786,-6.8392 -1.729957,-2.34991 -3.417238,-4.73115 -5.059926,-7.1428 -1.606432,-2.3016 -3.043296,-4.71048 -4.365855,-7.1841 -1.430771,-2.76179 -2.639848,-5.63039 -3.815075,-8.50785 -1.063904,-2.59314 -1.870363,-5.27642 -2.598825,-7.97936 -0.713184,-2.61332 -1.1849,-5.2776 -1.493763,-7.96607 -0.280253,-2.85633 -0.306149,-5.72899 -0.301581,-8.59645 -0.01272,-2.76921 0.239078,-5.52675 0.577605,-8.27192 0.332504,-2.65017 0.788706,-5.28173 1.263316,-7.90936 0.421935,-2.33287 0.944777,-4.64527 1.59526,-6.92476 0.613131,-2.15399 1.510633,-4.20676 2.427126,-6.2446 0.850196,-1.84918 1.747524,-3.67604 2.614174,-5.51747 0.915038,-1.95895 1.733086,-3.9603 2.49483,-5.98315 0.711538,-1.84233 1.244304,-3.74096 1.599144,-5.68212 0.257611,-1.61567 0.300732,-3.25248 0.286271,-4.88503 -0.01014,-0.92467 -0.08438,-1.84653 -0.18243,-2.76545 -0.0073,-0.43986 -0.174454,-0.78352 -0.433922,-1.12735 -2.203726,-2.17795 -5.054644,-4.04766 -8.152749,-4.39335 -0.873692,-0.088 -1.732997,-0.0311 -2.578251,0.19936 -1.257699,0.37717 -2.419404,0.99928 -3.553313,1.64928 -1.493647,0.84278 -2.831164,1.91147 -4.099572,3.05746 -1.414008,1.27751 -2.608727,2.7578 -3.745178,4.2798 -1.293516,1.76067 -2.399092,3.64693 -3.450125,5.55906 -1.055495,2.00125 -2.097478,4.00933 -3.168749,6.00225 -1.035103,1.93779 -2.135148,3.8396 -3.218019,5.75079 -1.215945,2.05655 -2.235736,4.21562 -3.172724,6.41045 -1.046149,2.4862 -1.748445,5.09056 -2.301877,7.72445 -0.416792,2.33402 -0.653287,4.69529 -0.957558,7.04567 -0.35846,2.5194 -0.739254,5.03383 -0.989303,7.56684 -0.215069,2.35339 -0.231549,4.71751 -0.276736,7.07831 -0.007,2.07267 -0.212329,4.13295 -0.486246,6.18482 -0.208578,1.63014 -0.562354,3.23636 -0.779173,4.86497 -0.161253,1.49395 -0.164553,2.99902 -0.18385,4.49984 -0.01277,1.14705 -0.03468,2.29397 -0.05681,3.44088 -0.01943,0.51507 -0.03001,1.02986 -0.02949,1.54524 -0.0012,0.38516 -0.002,0.77036 -0.0091,1.15547 -0.0016,0.1476 -0.01042,0.29488 -0.02131,0.44201 0.123304,2.1e-4 0.08348,-0.23207 0.122714,-0.34897 -0.701551,0.10408 -1.409626,0.0728 -2.112874,0.01 -2.776022,-0.48978 -8.089798,-4.11079 2.947582,2.20925 -1.378308,-0.85449 -2.504474,-2.02181 -3.548644,-3.24708 -1.026538,-1.24795 -1.892687,-2.61227 -2.651075,-4.03609 -0.880497,-1.68287 -1.462547,-3.49286 -2.01847,-5.30197 -0.828498,-2.79155 -1.37078,-5.65132 -1.748995,-8.535 -0.304572,-2.56764 -0.350791,-5.15475 -0.38579,-7.73705 -0.05817,-2.77598 0.0538,-5.55054 0.150945,-8.32414 0.09453,-3.60423 0.148134,-7.20796 0.306027,-10.81024 0.294024,-5.00041 0.451576,-10.00651 0.558176,-15.01392 0.04922,-5.93954 0.06549,-11.87991 0.0066,-17.81943 -0.0094,-5.63981 -0.512753,-11.25919 -1.005776,-16.87217 -0.421267,-5.33313 -1.227904,-10.61842 -2.192891,-15.87649 -0.889021,-4.60413 -1.811201,-9.20219 -2.930361,-13.75643 -0.738296,-2.97681 -1.703937,-5.89009 -2.897603,-8.714 -0.660919,-1.59274 -1.531279,-3.07459 -2.581748,-4.43807 -2.263233,-2.71173 -5.445463,-3.83603 -8.576396,-5.63131 -0.634505,-0.20689 -1.293978,-0.19531 -1.946336,-0.10309 -0.777447,0.0838 -1.460471,0.37751 -2.106309,0.8025 -0.783884,0.55948 -1.348447,1.32302 -1.826999,2.14575 -0.49687,0.86683 -0.808412,1.79539 -0.975403,2.77571 -0.172533,1.58192 -0.139798,3.17861 -0.138518,4.76764 -0.0056,2.07769 0.016,4.15426 0.123556,6.22929 0.129974,2.22309 0.427245,4.43153 0.729618,6.63636 0.418886,2.86658 0.851621,5.72911 1.142683,8.61199 0.311414,3.44397 0.334409,6.90401 0.389544,10.35888 0.05671,3.6759 0.364701,7.341 0.548466,11.01152 0.19186,3.37513 0.148007,6.75329 -0.08568,10.12392 -0.232893,2.96831 -0.611892,5.92259 -1.020963,8.87095 -0.523087,3.47321 -1.140218,6.93142 -1.744231,10.39124 -0.541211,3.21801 -1.222748,6.40916 -1.941628,9.59135 -0.642445,2.74538 -1.264835,5.49517 -1.868134,8.2494 -0.487317,2.37696 -1.052049,4.73568 -1.647634,7.08745 -0.5486487,2.09729 -1.1715218,4.17379 -1.7347723,6.26714 -0.4836288,1.7864 -0.894504,3.59099 -1.3112831,5.39378 -0.3264718,1.41302 -0.6705407,2.82176 -1.0429664,4.22338 -0.326028,1.25745 -0.6830397,2.50625 -1.0375939,3.75582 -0.2901378,0.99734 -0.5320558,2.00758 -0.7341555,3.02616 -0.1417625,0.75846 -0.2520132,1.5234 -0.3208002,2.29199 -0.030842,0.67941 -0.00695,1.36009 -0.00234,2.03994 0.00426,0.71333 -0.00508,1.42662 -0.011832,2.1399 -0.00326,0.43591 -0.011169,0.87173 -0.025546,1.3074 -0.017386,0.35758 -0.025552,0.7154 -0.031317,1.07332 -0.00378,0.34583 9.1e-5,0.69164 -0.012441,1.03733 -0.00817,0.26997 0.00201,0.53997 0.00576,0.80994 0.00263,0.38671 0.0081,0.77338 0.00346,1.16009 6.319e-4,0.22912 -0.01394,0.4578 -0.018147,0.68675 0.01099,0.25209 0.01002,0.50437 0.00923,0.75664 -0.00314,0.21635 -0.00487,0.43265 -0.00525,0.64904 0.00207,0.1561 -0.00165,0.30898 -0.015141,0.46473 -0.012495,0.20527 -0.022028,0.4101 -0.039772,0.61512 -0.00959,0.18564 -0.03588,0.36998 -0.057559,0.5545 -0.014841,0.1071 -0.018468,0.21522 -0.024278,0.32305 3.02e-4,0.0321 -0.00579,0.0638 -0.00867,0.0955 -4.784e-4,10e-4 -9.569e-4,0.003 -0.00144,0.004 -0.010955,0.1383 -0.02191,0.27661 -0.032866,0.41491 0,0 7.0110999,2.71065 7.0110999,2.71065 v 0 c -0.07875,0.097 -0.1575,0.19392 -0.236249,0.29088 -5.12e-4,-2e-5 -10e-4,-3e-5 -0.0015,-5e-5 -0.003,-0.0287 -0.01087,-0.0581 -0.0092,-0.0876 -0.0034,-0.0956 -0.0074,-0.19116 -0.0073,-0.28682 0.0049,-0.18748 0.01373,-0.3751 0.04627,-0.56027 0.0095,-0.20361 0.03983,-0.40455 0.04408,-0.60817 0.01251,-0.17248 0.04717,-0.34223 0.03605,-0.51529 -3.8e-4,-0.21817 -0.0021,-0.43625 -0.0052,-0.65439 -7.83e-4,-0.24913 -0.0019,-0.49828 0.0092,-0.74723 -0.0042,-0.23512 -0.01861,-0.46998 -0.01815,-0.70525 -0.0046,-0.38561 7.35e-4,-0.77117 0.0033,-1.15678 0.0037,-0.26799 0.01367,-0.53603 0.0053,-0.80403 -0.01203,-0.34578 -0.0088,-0.69164 -0.0063,-1.03756 0.0022,-0.35085 0.0074,-0.70177 0.02401,-1.05228 0.0217,-0.45215 0.0012,-0.90393 -0.0022,-1.35647 -0.0079,-0.71854 -0.01945,-1.43706 -0.01806,-2.15567 0.0025,-0.66033 0.01293,-1.32049 0.0273,-1.98066 0.01337,-0.75056 0.06215,-1.5009 0.197868,-2.24053 0.192372,-1.00619 0.4259685,-2.00335 0.6811515,-2.99545 0.322133,-1.26154 0.683242,-2.51242 1.017766,-3.7707 0.372606,-1.4179 0.689659,-2.84871 0.990351,-4.28347 0.389952,-1.80312 0.800126,-3.60204 1.265699,-5.38735 0.54439,-2.10671 1.108058,-4.2083 1.657683,-6.31364 0.617748,-2.35902 1.197087,-4.72701 1.639874,-7.12624 0.569198,-2.76755 1.164378,-5.52922 1.789883,-8.28462 0.693878,-3.20468 1.364963,-6.41552 1.901452,-9.65094 0.58134,-3.46563 1.180392,-6.92809 1.778041,-10.39091 0.466345,-2.95409 0.919441,-5.91468 1.083491,-8.90433 0.198117,-3.41385 0.207532,-6.8321 0.01683,-10.24762 -0.181399,-3.65705 -0.477431,-7.30974 -0.524364,-10.97219 -0.04711,-3.46479 -0.0799,-6.93242 -0.331865,-10.39 -0.239306,-2.86583 -0.597687,-5.71719 -0.986352,-8.56639 -0.282053,-2.18311 -0.561698,-4.36861 -0.708948,-6.56577 -0.128309,-2.05522 -0.150606,-4.11177 -0.108676,-6.17068 0.0203,-1.53243 0.02376,-3.07127 0.212903,-4.59437 0.152971,-0.88756 0.41551,-1.74357 0.854403,-2.53567 0.43028,-0.71564 0.940144,-1.37514 1.670249,-1.80858 0.598259,-0.31677 1.238618,-0.48936 1.91919,-0.50398 0.597411,0.0115 1.178972,0.0972 1.698169,0.41583 -11.361873,-6.5906 -6.039511,-3.98772 -3.952265,-1.88197 1.138529,1.31066 2.095483,2.75692 2.82596,4.33632 1.325168,2.81113 2.387983,5.7367 3.215115,8.73322 1.232477,4.55618 2.235684,9.16861 3.132707,13.80209 0.982454,5.25469 1.812716,10.53679 2.303008,15.86292 0.528083,5.597 0.893645,11.20882 1.03082,16.82995 0.130309,5.92296 0.123145,11.84677 -0.04891,17.76918 -0.122175,4.96642 -0.332706,9.92927 -0.774635,14.87896 -0.231374,3.5804 -0.309691,7.16424 -0.442242,10.74908 -0.138548,2.76537 -0.333307,5.53111 -0.280278,8.30188 0.0316,2.6222 0.114976,5.24677 0.431507,7.85262 0.376055,2.89175 0.886081,5.76313 1.616036,8.58857 0.486812,1.8225 0.984397,3.65348 1.804431,5.36052 0.744458,1.47702 1.628108,2.87595 2.629113,4.19373 1.00741,1.26823 2.090802,2.48286 3.406178,3.44309 2.933062,1.70631 6.154127,4.45787 9.803104,4.80553 0.792983,0.0347 1.605728,0.0706 2.38419,-0.11406 0.218017,-0.0703 0.386276,-0.21567 0.402262,-0.48799 -0.0106,-0.15441 -0.01952,-0.30894 -0.02125,-0.46377 -0.007,-0.38847 -0.0079,-0.77704 -0.0095,-1.16557 -2.34e-4,-0.5267 -0.01332,-1.05274 -0.03476,-1.57906 -0.02666,-1.16241 -0.05391,-2.32493 -0.05273,-3.48772 0.0072,-1.47258 0.024,-2.94763 0.170068,-4.41427 0.182474,-1.64215 0.447228,-3.27284 0.68002,-4.90829 0.276656,-2.0841 0.485282,-4.17669 0.479886,-6.28206 0.03154,-2.35069 0.03379,-4.70405 0.214421,-7.04957 0.217141,-2.52623 0.593225,-5.02923 0.993886,-7.53229 0.318363,-2.33695 0.563881,-4.68311 0.91671,-7.0151 0.490239,-2.59948 1.152279,-5.16746 2.216758,-7.59815 0.955942,-2.15747 1.996229,-4.27664 3.19099,-6.31346 1.08678,-1.91587 2.20044,-3.817 3.237862,-5.76041 1.058128,-1.99603 2.065874,-4.01853 3.152021,-5.99979 1.043718,-1.87797 2.133559,-3.73458 3.431327,-5.45143 1.128332,-1.47278 2.324485,-2.89527 3.710759,-4.13554 1.249977,-1.09814 2.572124,-2.11277 4.04473,-2.89917 1.120277,-0.59212 2.273436,-1.15637 3.525986,-1.40447 0.807612,-0.11439 1.62652,-0.1263 2.428142,0.0487 0.286061,0.0761 0.420034,0.0987 0.688117,0.21947 0.100972,0.0455 0.388984,0.21186 0.293296,0.1561 -10.339149,-6.02519 -7.904734,-4.46914 -5.665295,-3.31707 0.261299,0.18598 0.552612,0.38542 0.634404,0.71102 0.210896,0.90151 0.328526,1.82144 0.382389,2.74555 0.06314,1.59676 0.0404,3.19784 -0.178747,4.78373 -0.296773,1.91273 -0.778898,3.78648 -1.464046,5.59922 -0.746244,2.00775 -1.57269,3.98306 -2.493661,5.91747 -0.863964,1.84873 -1.7693,3.67796 -2.609232,5.5379 -0.907523,2.07797 -1.78757,4.17335 -2.446676,6.34586 -0.670266,2.30562 -1.163719,4.65322 -1.5784,7.01788 -0.466189,2.64321 -0.927185,5.28837 -1.261888,7.95218 -0.350375,2.77515 -0.612339,5.56273 -0.58758,8.36368 -0.0081,2.88331 0.0043,5.77085 0.229149,8.64709 0.277546,2.72422 0.763492,5.41535 1.456248,8.06629 0.71201,2.74725 1.53185,5.46611 2.620673,8.09102 1.181025,2.87458 2.374724,5.74776 3.733377,8.5439 1.296679,2.51415 2.740746,4.94573 4.35903,7.26803 1.635612,2.41845 3.313741,4.80842 5.037322,7.16506 1.71002,2.30601 3.424812,4.6089 5.221586,6.8486 1.471699,1.85674 2.944925,3.71423 4.504093,5.49887 1.227952,1.4042 2.492712,2.77413 3.740592,4.16044 z" />
    <path
       style="fill:#ff0000"
       id="path2"
       d="m 118.43767,306.24823 c 1.36038,-1.70334 2.6394,-3.45128 3.68432,-5.36662 1.04119,-1.96438 1.39149,-4.14818 1.70113,-6.32029 0.36276,-2.50034 0.56713,-5.01827 0.70774,-7.53958 0.12782,-2.79063 0.19307,-5.58406 0.19741,-8.37755 -0.003,-1.68085 -0.0644,-3.36071 -0.10807,-5.0408 -0.0314,-0.79459 -0.026,-1.58973 -0.0371,-2.38461 -0.004,-0.20696 -0.006,-0.41381 -0.003,-0.62077 -0.20703,-2.3873 -7.73485,-5.46053 -6.50665,-2.70993 0.62537,1.29682 1.29332,2.57257 1.95375,3.85172 1.07235,2.08267 2.16472,4.1549 3.25331,6.2291 1.12778,2.1664 2.29099,4.31392 3.46384,6.45614 1.17487,2.14353 2.31818,4.30406 3.49822,6.44475 1.30543,2.36208 2.72371,4.65879 4.19217,6.92225 1.27553,1.99209 2.68942,3.88322 4.26017,5.65049 1.66395,1.82479 3.58937,3.37178 5.58879,4.80889 3.95056,2.64541 8.11188,4.97321 12.3419,7.14206 2.15132,1.10546 4.33169,2.15182 6.54288,3.13167 2.08793,0.91763 4.22237,1.72126 6.38745,2.43598 1.89211,0.58596 3.81069,1.07958 5.74224,1.51612 1.56401,0.33906 3.14518,0.60259 4.7333,0.7993 1.00783,0.11131 2.01924,0.1818 3.0294,0.26674 0.4538,0.0331 0.9052,0.0753 1.35263,0.15813 0.37046,0.11042 0.75085,0.17869 1.132,0.24206 0.35045,0.0296 0.69792,0.0785 1.04539,0.13254 0.16039,0.016 0.31526,0.0467 0.47652,0.0617 0.24277,0.003 0.48549,0.01 0.72826,0.0141 0.11729,0.002 0.23456,0.001 0.35183,-10e-4 0.0508,-1.2e-4 0.1016,10e-4 0.1524,0.002 0,0 -6.11116,-4.43773 -6.11116,-4.43773 v 0 c -0.0479,0.001 -0.0959,0.003 -0.14383,0.003 -0.1084,-0.002 -0.21684,-0.003 -0.32518,-0.008 -0.22738,-0.0111 -0.45563,-0.0216 -0.67842,-0.0729 -0.16,-0.0276 -0.31959,-0.0402 -0.47984,-0.0612 -0.33129,-0.0332 -0.66348,-0.0657 -0.98825,-0.14211 -0.38679,-0.08 -0.76986,-0.18923 -1.16473,-0.22166 -0.4381,-0.0405 -0.87837,-0.0416 -1.31722,-0.0727 -0.97979,-0.0598 -1.95902,-0.13335 -2.93447,-0.24455 -1.54642,-0.19759 -3.08779,-0.44356 -4.60719,-0.7963 -1.90764,-0.4468 -3.80495,-0.94144 -5.66877,-1.54812 -2.13434,-0.72683 -4.2421,-1.52956 -6.29897,-2.45541 -2.20079,-0.99658 -4.37308,-2.05393 -6.51926,-3.16345 -2.21916,-1.15413 -6.70688,-3.8041 2.91191,1.80648 3.0741,1.7931 -6.21832,-3.40368 -3.05665,-1.87119 -2.00914,-1.3882 -3.95424,-2.87675 -5.63647,-4.65797 -1.6014,-1.73517 -3.0464,-3.59973 -4.35033,-5.56951 -1.48719,-2.23455 -2.91175,-4.51171 -4.20328,-6.86591 -1.17074,-2.13733 -2.29796,-4.29812 -3.4735,-6.43289 -1.17574,-2.14195 -2.35232,-4.28357 -3.48279,-6.44993 -1.07188,-2.04926 -2.14183,-4.09984 -3.16196,-6.17551 -0.60854,-1.23801 -1.22202,-2.47543 -1.77688,-3.73844 -1.06747,-2.30949 -7.26596,-6.52487 -6.99442,-3.76817 0.027,0.21723 0.0465,0.4352 0.0684,0.653 0.0752,0.81122 0.11433,1.62471 0.16376,2.43785 0.0945,1.70568 0.2434,3.40823 0.2995,5.11604 0.0829,2.78917 0.0646,5.58114 -0.0989,8.3675 -0.16964,2.48797 -0.44389,4.96443 -0.78821,7.4344 -0.29342,2.089 -0.61581,4.19349 -1.57548,6.1005 -0.99979,1.88338 -2.21161,3.65228 -3.79268,5.1015 z" />
    <path
       style="fill:#ff0000"
       id="path3"
       d="m 251.79658,325.07557 c -0.12059,-2.1656 -0.13542,-4.33623 -0.17067,-6.50465 -0.0301,-2.32603 -0.046,-4.65223 -0.0662,-6.97836 -0.003,-2.92397 -0.22064,-5.8401 -0.4734,-8.75112 -0.3378,-3.39642 -0.4639,-6.80699 -0.52983,-10.21781 -0.0786,-3.4494 -0.0683,-6.896 0.14097,-10.34016 0.28054,-3.87681 1.01409,-7.69898 1.78006,-11.50335 0.72515,-3.72577 1.70629,-7.39134 2.81158,-11.02009 1.04106,-3.33268 2.17469,-6.63518 3.36027,-9.91889 1.15015,-3.19096 2.39357,-6.34712 3.75001,-9.45586 1.13633,-2.65881 2.61199,-5.14268 4.19066,-7.55745 1.48156,-2.22699 3.14808,-4.32058 4.77672,-6.4396 1.28724,-1.70775 2.5523,-3.43213 3.80763,-5.16344 0.79926,-1.13065 1.59139,-2.2663 2.3878,-3.39896 0.3563,-0.49066 0.68621,-1.00097 1.05342,-1.48367 0.0297,-0.0459 0.0764,-0.0781 0.11463,-0.11716 -2.21452,-1.22499 -4.3579,-2.58849 -6.64356,-3.67497 -0.15497,-0.0737 -2.33577,3.17875 -2.4672,3.38036 -1.84791,2.87825 -3.24243,6.00077 -4.4619,9.18626 -1.35311,3.75887 -2.20099,7.67176 -2.99512,11.57909 -0.74653,3.70301 -1.02859,7.46993 -1.17411,11.23723 -0.0927,3.70904 -0.0935,7.42011 0.0577,11.12728 0.17663,3.85926 0.83513,7.66661 1.66172,11.43277 0.6778,3.12419 1.79264,6.11416 3.09483,9.02464 1.04484,2.31057 2.32592,4.4991 3.67042,6.64494 1.10801,1.72999 2.31374,3.39458 3.5693,5.01974 1.0719,1.37796 2.2759,2.64376 3.54568,3.83906 2.72303,2.49358 6.0997,4.01543 9.28774,5.85404 0.56476,0.23695 1.10969,0.6326 1.73167,0.69867 0.27955,-0.01 0.53783,-0.0868 0.80508,-0.16311 0,0 -6.06567,-4.28902 -6.06567,-4.28902 v 0 c -0.24469,-0.009 -0.47026,0.007 -0.68727,-0.11862 -0.50498,-0.25598 -1.03454,-0.46334 -1.52025,-0.75778 11.23895,6.51886 5.44498,3.45679 3.18935,1.52881 -1.31666,-1.1469 -2.54257,-2.39515 -3.64682,-3.74934 -1.28964,-1.60707 -2.51531,-3.26451 -3.65664,-4.98069 -1.39017,-2.1315 -2.72271,-4.30544 -3.82082,-6.60481 -1.35686,-2.87819 -2.51736,-5.84323 -3.2619,-8.94467 -0.88949,-3.72614 -1.58806,-7.50207 -1.75794,-11.3382 -0.14854,-3.68317 -0.11295,-7.36913 -0.0279,-11.05387 0.11493,-3.74426 0.3137,-7.49633 1.03577,-11.18156 0.77847,-3.86878 1.64821,-7.73354 2.98376,-11.4541 1.21049,-3.12933 2.62697,-6.18171 4.59545,-8.91711 0.5922,-0.80474 1.1804,-1.59957 1.86171,-2.33226 0.49468,-0.53199 0.79771,-0.76047 0.78627,-0.76928 -1.95828,-1.50916 -4.09634,-2.76944 -6.14451,-4.15417 -0.0478,0.0858 -0.0961,0.17135 -0.14264,0.25788 -0.29208,0.52523 -0.59467,1.04425 -0.92326,1.54779 -0.74371,1.15937 -1.51473,2.30055 -2.28057,3.44535 -1.19189,1.76029 -2.3969,3.51151 -3.68793,5.2015 -1.61657,2.14531 -3.23807,4.28892 -4.72174,6.52981 -1.60753,2.44605 -3.14272,4.94895 -4.2373,7.67488 -1.30485,3.14769 -2.50966,6.33533 -3.6923,9.53071 -1.20483,3.29075 -2.36292,6.59931 -3.37806,9.9543 -1.08316,3.66303 -2.03216,7.36295 -2.77724,11.11086 -0.77559,3.82403 -1.53544,7.66201 -1.88181,11.55345 -0.24825,3.45531 -0.30182,6.91528 -0.19877,10.37859 0.0779,3.41538 0.17959,6.8321 0.47166,10.23717 0.23072,2.87581 0.42945,5.75717 0.38903,8.6444 -0.0103,2.3244 -0.0109,4.6489 0.0334,6.97301 0.0348,2.13064 0.12182,4.26649 -0.0194,6.39473 z" />
    <path
       style="fill:#ff0000"
       id="path6"
       d="m 257.34363,326.05602 c 4.62559,1.13752 9.24328,2.29622 13.89158,3.34829 4.59989,0.9687 9.25974,1.38365 13.94718,1.55853 4.37272,0.19357 8.72057,0.0988 13.06327,-0.43653 5.49099,-0.5428 10.89426,-1.60513 16.25878,-2.86424 6.07229,-1.48583 12.11028,-3.09803 18.22308,-4.41343 3.38308,-0.67153 6.96553,-0.80392 9.77759,-2.98649 1.46633,-1.55979 2.01854,-3.42145 1.23161,-5.42017 0,0 -13.6285,-5.86238 -13.6285,-5.86238 v 0 c 1.58668,0.9204 0.91282,2.25694 -0.0693,3.40157 -2.57565,1.86469 -5.94767,1.92701 -8.90698,2.83338 -6.06353,1.45939 -12.08597,3.09002 -18.1781,4.42782 -5.38448,1.08204 -10.77177,2.22701 -16.25767,2.66706 -4.37076,0.33525 -8.74527,0.28813 -13.12529,0.14546 -4.56208,-0.19797 -9.11719,-0.62547 -13.58475,-1.61202 -4.84654,-1.09466 -9.68762,-2.28932 -14.3876,-3.91155 z" />
    <path
       style="fill:#ff6600;fill-opacity:0.929907"
       id="path8"
       d="m 126.12671,302.28364 c -1.26171,0.80164 -2.71189,1.26718 -4.13173,1.71567 -3.17354,1.03317 -6.39448,1.89724 -9.62717,2.72106 -4.1111,1.01911 -8.28861,1.73511 -12.464289,2.42928 -3.91445,0.66577 -7.877757,0.91765 -11.832694,0.5643 -3.918148,-0.38916 -7.773819,-1.18396 -11.599863,-2.09047 -3.575586,-0.83929 -7.13278,-1.77665 -10.592881,-3.01268 -3.464772,-1.11618 -6.788291,-2.60903 -10.156182,-3.97862 -3.240908,-1.28978 -6.284388,-2.95885 -9.319339,-4.66117 -3.238136,-1.98143 -6.277,-4.27258 -9.30073,-6.56276 -11.27237,-9.55323 -25.483713,-21.32706 28.517722,23.87664 0.480648,0.40235 -0.945187,-0.82376 -1.406844,-1.24775 -1.066902,-0.97988 -1.577535,-1.5139 -2.595668,-2.53476 -2.427533,-2.4805 -4.699554,-5.10389 -6.812084,-7.85612 -2.0295,-2.78358 -3.951574,-5.64452 -5.731014,-8.59404 -1.759089,-2.98392 -3.240137,-6.11582 -4.591063,-9.30161 -1.391701,-3.34394 -2.40826,-6.82183 -3.417475,-10.29485 -1.05811,-3.58318 -1.819712,-7.23882 -2.519065,-10.90557 -0.592863,-3.56586 -1.254468,-7.12468 -1.60027,-10.72444 -0.352728,-4.25245 -0.349766,-8.51851 -0.337712,-12.78154 0,0 -34.6320216,-25.34165 -34.6320216,-25.34165 v 0 c -0.279454,4.30449 -0.3266495,8.62278 -0.1889628,12.93423 0.1397046,3.71879 0.3683339,7.40569 1.1949511,11.05171 0.6672358,3.74822 1.4295421,7.48462 2.2949834,11.19147 0.9114835,3.58505 1.9618267,7.13731 3.1314464,10.6463 1.1836895,3.3572 2.5337795,6.65024 4.2092105,9.79626 1.641962,3.12473 3.447367,6.14869 5.513296,9.01569 1.973215,2.95162 4.071254,5.80892 6.517205,8.3932 12.202659,13.31791 26.555362,24.53923 41.113282,35.20753 3.16774,2.23735 6.348725,4.47594 9.809776,6.24682 3.13561,1.63534 6.371228,3.05325 9.672115,4.32307 3.417143,1.36656 6.85318,2.68668 10.378935,3.75176 3.556216,1.01933 7.156955,1.8713 10.785365,2.59351 3.99183,0.77016 8.01523,1.43341 12.08955,1.52827 4.1772,-0.0187 8.32881,-0.44836 12.42515,-1.28425 4.24897,-0.80159 8.49345,-1.62761 12.72517,-2.51631 3.44078,-0.75146 6.87967,-1.51492 10.29888,-2.35989 1.77398,-0.45752 3.56994,-0.84687 5.35862,-1.19319 z" />
    <path
       style="fill:#ff6600;fill-opacity:0.434579"
       id="path15"
       d="m 104.09575,269.4156 c -1.5653,-0.70956 -2.51461,-2.44269 -3.51351,-3.7837 -1.711723,-2.34952 -3.519728,-4.62451 -5.29493,-6.92586 -1.852701,-2.41989 -3.663195,-4.86865 -5.354031,-7.4046 -1.603904,-2.48633 -3.151732,-5.00672 -4.580884,-7.59748 -1.439058,-2.73038 -2.876367,-5.46168 -4.170404,-8.26438 -1.294386,-2.99643 -2.663828,-5.96018 -3.847622,-9.0028 -1.203379,-3.07601 -2.13809,-6.23938 -2.975547,-9.43087 -0.854855,-3.21429 -1.581609,-6.45858 -2.082671,-9.74688 -0.452452,-3.11058 -0.901889,-6.22022 -1.079692,-9.35996 -0.173654,-2.7868 -0.177667,-5.57974 -0.133676,-8.37026 -0.01011,-2.00137 0.02916,-3.93165 -1.17865,-5.60159 -1.18807,-1.37458 -3.190158,-1.4411 -4.876494,-1.26643 -1.294549,0.21459 -2.479303,0.78748 -3.591805,1.46148 -1.36531,0.78778 -2.459017,1.92715 -3.558703,3.0355 -1.305797,1.42991 -2.419266,3.03165 -3.453357,4.66687 -1.261064,2.05139 -2.316898,4.21438 -3.330489,6.39543 -1.079765,2.35996 -1.960105,4.80572 -2.817035,7.25357 -0.891965,2.59256 -1.594623,5.24384 -2.247633,7.90486 -0.657051,2.79958 -1.172649,5.62953 -1.657969,8.46308 -0.490863,2.95276 -0.890199,5.91933 -1.231106,8.8928 -2.122948,17.36789 -0.745639,34.47347 -0.747693,52.24867 0.0982,2.3818 0.57853,4.72797 1.652977,6.86117 1.154256,2.45886 2.976267,2.82926 5.509669,2.7256 2.157389,-0.29607 3.568104,-1.59919 4.727515,-3.339 1.201547,-1.90469 1.876363,-4.06494 2.490274,-6.21377 0.569939,-2.30478 1.092424,-4.61017 1.810884,-6.87444 0.665616,-2.01305 1.273617,-4.04513 1.947103,-6.05488 5.647847,-16.36383 3.012301,62.62215 0.615616,-45.8089 -0.0091,-0.411 -0.754553,-0.36864 -1.163729,-0.40835 -3.109059,-0.30167 -2.661862,-0.28849 -4.762705,0.41029 -1.269573,1.09198 -1.945736,2.69371 -2.667048,4.16964 -0.88459,1.73472 -1.616568,3.53027 -2.215806,5.38117 -3.385959,15.9429 -7.482312,34.64855 0.801076,48.82207 1.551656,1.98837 3.831863,1.95603 6.103793,1.50316 2.150981,-0.70856 3.339098,-2.44668 4.434625,-4.30016 1.042182,-1.70462 1.759334,-3.57149 2.416907,-5.44932 0.629918,-1.89826 0.925901,-3.86843 1.093499,-5.85477 0.117852,-1.95511 0.150899,-3.91406 0.19635,-5.87184 -0.03991,-2.16075 0.06764,-4.31089 0.234563,-6.46424 0.102676,-2.40174 0.406249,-4.79216 0.786617,-7.1645 0.229774,-1.39325 -1.034121,-0.74019 -2.142063,-0.68235 -2.197474,0.11473 -1.336423,-0.2122 -2.38954,0.2714 -0.582502,1.37053 -0.14487,3.18954 -0.04637,4.65548 0.19811,2.42977 0.179452,4.86878 0.223588,7.30469 0.02183,1.23622 0.04422,2.47242 0.06402,3.70867 0.0066,0.41248 0.01947,1.64999 0.01925,1.23745 -0.02132,-39.46357 -0.131033,-56.5223 -0.0341,-41.16213 0.01769,2.22333 -0.04985,4.44497 -0.153234,6.66562 -0.201492,1.89038 -0.534244,3.78652 -1.142119,5.59118 -0.393038,1.23586 -1.163777,2.18785 -2.273619,2.83787 -1.034798,0.43778 -2.25663,0.76852 -3.368259,0.45231 -1.058001,-0.36318 -1.763568,-1.28295 -2.57205,-2.01459 -1.214192,-1.19628 -2.403396,-2.42135 -3.691999,-3.53791 -1.679743,-1.36568 -3.319584,-2.78556 -4.877029,-4.28961 -1.57606,-1.46554 -2.772897,-3.21232 -3.706821,-5.13855 -1.368786,-2.52985 -2.468213,-5.19562 -3.54226,-7.86072 -1.078689,-2.59587 -1.903512,-5.28144 -2.698018,-7.97428 -0.968301,-2.76446 -1.73599,-5.59289 -2.4805,-8.42402 -0.728627,-2.86786 -1.386342,-5.75176 -1.973174,-8.65199 -0.607865,-3.02918 -1.09498,-6.0809 -1.550886,-9.13611 -0.458198,-3.01385 -0.818515,-6.04069 -1.146454,-9.07105 -0.342078,-3.20305 -0.605915,-6.41363 -0.849312,-9.62545 -0.177312,-3.45286 -0.274549,-6.90623 -0.302944,-10.36303 -0.02992,-3.35979 -0.05427,-6.71961 -0.07538,-10.07946 -0.06956,-3.1311 0.06737,-6.26934 -0.157827,-9.39429 -0.144415,-2.3296 -0.297121,-4.74163 -1.400113,-6.84173 -1.720422,-1.4571 -5.329674,-1.28513 -6.653988,0.64434 -0.546829,1.47958 -0.80009,3.05615 -1.125117,4.59718 -0.387423,2.31437 -0.904566,4.60196 -1.447985,6.88367 -0.695044,2.70625 -1.433417,5.4014 -2.097631,8.11545 -0.6752,2.78446 -1.415182,5.55234 -2.124932,8.32799 -0.725913,2.71972 -1.445851,5.44152 -2.2646639,8.13502 -0.8067618,2.80711 -1.7867467,5.55998 -2.6595652,8.34662 -0.9295227,2.84909 -1.8115258,5.71341 -2.7340128,8.56475 -0.9464193,3.01263 -1.8543723,6.03708 -2.79489247,9.05151 -0.9226885,3.09273 -1.89536543,6.16951 -2.90460263,9.23491 -1.096162,3.44397 -2.1746747,6.89346 -3.2302231,10.35009 -1.1024239,3.79371 -2.2926765,7.56092 -3.3567839,11.36579 -0.865219,3.03198 -1.632443,6.08429 -1.984613,9.22 -1.665324,27.79331 -8.651582,37.06892 5.1253046,50.62269 2.0071546,2.09204 4.5023917,3.49938 7.10423253,4.70501 2.45816177,1.10072 5.09005957,1.60358 7.74884697,1.90167 2.1396609,0.24447 4.2607179,0.10259 6.3487639,-0.39409 1.563197,-0.3512 2.910277,-1.16675 4.200452,-2.07861 1.292592,-1.12071 1.621207,-2.49333 1.848441,-4.10698 3.472624,-24.3666 2.300743,-33.34102 -1.161154,-50.6864 -0.749608,-3.18955 -1.54557,-6.36659 -2.341701,-9.54466 -0.8006,-3.01272 -1.364072,-6.07434 -1.902669,-9.14186 -0.450068,-2.73867 -0.662244,-5.49192 -0.683612,-8.26477 0.464431,-15.32606 0.04024,-1.77494 0.0828,40.81692 4.46e-4,0.44672 -0.0046,-0.89345 -0.0028,-1.34018 0.0054,-1.35462 0.06838,-2.70064 0.14376,-4.05284 1.0315,-16.54875 3.539158,-33.56011 -0.0025,-49.7996 -0.57078,-2.18201 -4.581693,-1.39487 -6.1760637,-0.76686 -0.4332902,0.17067 -0.6313611,0.8391 -0.7844203,1.19083 -0.4534394,1.80475 -0.5878769,3.67028 -0.7896085,5.51499 -2.1717189,17.11308 -1.8256095,34.39147 0.7228333,51.32726 0.4878558,2.77386 1.1967022,5.48347 2.0467872,8.16528 0.390403,0.77159 0.541268,2.26788 1.388658,2.76957 1.65631,0.98059 3.694741,0.44734 5.380605,-0.0576 1.680524,-1.38122 1.581436,-3.59542 1.720863,-5.59017 0.144525,-2.39533 0.234878,-4.7935 0.326027,-7.19132 -0.03306,-2.2085 0.239714,-4.39778 0.45173,-6.59039 0.04542,-0.23227 0.135228,-0.46014 0.136268,-0.6968 0.06539,-14.88024 0.0805,-29.76073 0.06296,-44.6411 -6.07e-4,-0.51463 -0.334347,-0.69382 -0.894011,-0.68839 -2.042111,0.0198 -5.843829,-1.68879 -6.117456,0.33501 -2.004948,14.82892 0.0017,29.92769 0.0026,44.89153 0.671911,1.47866 0.737775,3.16271 1.092474,4.74319 0.389197,2.23528 0.797176,4.46549 1.349221,6.66706 0.498074,2.31987 1.328428,4.58043 2.38472,6.70328 1.050878,2.06208 2.049725,2.72883 4.332772,2.96137 -0.381555,0.36828 1.396677,-0.17548 1.275571,0.009 -0.134974,0.20567 -0.246438,-0.0539 -0.05017,0.22689 0.411714,0.68341 1.137946,1.02481 1.546801,1.70504 0.593837,1.04939 1.177631,2.0998 1.687012,3.19495 0.609885,1.90971 1.386649,3.75573 2.194457,5.58926 1.294593,2.64104 2.421437,5.35699 3.692003,8.00912 1.833408,2.87963 3.744395,5.70802 5.623648,8.55768 2.009297,3.14002 4.576791,5.87408 7.056523,8.64549 1.983407,2.38021 4.181836,4.55687 6.40079,6.71301 0,0 3.334758,-43.46494 3.334758,-43.46494 v 0 c -2.118191,-2.01349 -4.134071,-4.1267 -6.026272,-6.35565 -2.34408,-2.81388 -4.536821,-5.72663 -6.469786,-8.84197 -1.842376,-2.80642 -3.681451,-5.65137 -4.952879,-8.77158 -1.208365,-2.69411 -2.437752,-5.38362 -3.450781,-8.15895 -0.787575,-2.12929 -1.465585,-4.33671 -2.70473,-6.25742 -0.839965,-1.2658 -1.722028,-2.54199 -2.899721,-3.51901 -0.960484,-0.69804 -1.841755,-1.52461 -2.980982,-1.92857 -0.358617,-0.12222 -2.431107,-0.68555 -2.778221,-0.39731 -0.06308,0.0524 0.162306,0.0234 0.243459,0.0351 1.471062,-0.0366 0.311536,-1.0313 0.121037,-1.94326 -0.682358,-2.09526 -1.23847,-4.21363 -1.599301,-6.39087 -0.398371,-2.26917 -0.773731,-4.54194 -1.14413,-6.81576 -0.207605,-1.7604 -0.629599,-3.5975 -0.311363,-5.35398 -0.0028,14.72976 2.011235,29.59864 -0.0084,44.18928 -0.279242,2.01732 -4.073616,0.0552 -6.109658,0.009 -0.250199,-0.006 -0.482967,-0.14949 -0.732859,-0.16309 -0.0482,-0.003 -0.08294,0.16696 -0.08295,0.11869 -0.01268,-44.69667 -1.436792,-58.03431 0.163241,-42.7098 -0.112747,2.28684 -0.340196,4.55561 -0.58211,6.83199 -0.0732,2.34926 -0.152276,4.69835 -0.252354,7.04665 -0.06049,1.46264 -0.511809,3.34803 0.486641,4.55787 0.666665,0.0894 3.525761,0.56199 3.894258,0.38895 0.06354,-0.0298 -0.472426,-1.88949 -0.537051,-2.07781 -0.667357,-2.56769 -1.122165,-5.19239 -1.401543,-7.83018 -0.145772,-1.40736 -0.269611,-2.82162 -0.292784,-4.23766 -0.0074,-0.44978 0.01967,-1.79921 0.02005,-1.34937 0.03701,43.0036 1.409275,56.49331 -0.09119,41.35122 -9.76e-4,-1.64436 0.193621,-3.27482 0.281988,-4.91556 -0.204809,-1.15548 -0.732763,-0.65778 -2.04029,-0.73891 -1.225192,-0.076 -3.5700841,-1.03263 -3.6777295,0.19019 -0.8009356,17.80709 0.4051071,-60.05944 -0.082479,-37.81892 -1.1603909,17.11348 -1.9111491,34.33587 -0.2533291,51.46205 0.2901664,2.74764 0.7077619,5.48115 1.2918102,8.18287 0.6359664,3.01141 1.3955574,5.99269 2.1545004,8.97519 0.783016,3.1975 1.518708,6.41532 1.989183,9.67542 2.209377,15.85137 -3.362917,41.27195 0.445595,-36.62905 0.122931,1.19714 0.278743,2.33339 0.482669,3.50146 0.262506,0.9169 -0.428157,1.60408 -1.128326,2.12311 -1.41549,0.70219 -2.891821,0.91821 -4.4711034,0.76541 -2.1512359,-0.18289 -4.2323039,-0.67716 -6.1503037,-1.70625 -2.10694367,-1.14922 -3.94693485,-2.62645 -5.4657492,-4.50026 -0.7664101,-0.98763 -1.5242772,-1.96196 -1.8904531,-3.18278 -0.4606785,-1.53589 -0.1291089,-2.56513 -0.1286511,-2.41196 0.041931,14.02814 0.01468,28.0564 0.02202,42.0846 -0.2673017,-3.24944 0.00596,-6.42788 0.866781,-9.5853 0.9330225,-3.84108 1.9544715,-7.65921 3.19355831,-11.41484 0.98864042,-3.36337 2.11785199,-6.68082 3.19394509,-10.01685 0.9501869,-3.06882 2.0408502,-6.09055 2.9636832,-9.1684 0.9064476,-3.00415 1.8445782,-5.99874 2.7655911,-8.99841 0.8773908,-2.84906 1.8130468,-5.6813 2.7301528,-8.51779 0.892394,-2.76001 1.713116,-5.54356 2.722623,-8.26496 0.836185,-2.72903 1.714705,-5.44507 2.410035,-8.21518 0.76898,-2.76129 1.492423,-5.53622 2.191541,-8.31603 0.688881,-2.6686 1.323464,-5.35078 2.061969,-8.00673 0.620794,-2.14001 1.249033,-4.28024 1.759855,-6.44964 0.270774,-1.38442 0.623185,-2.76294 0.796413,-4.15889 -0.0916,-0.30243 -0.07739,-0.55146 -0.468397,-0.63665 -1.012204,-0.22052 -2.999964,-0.37278 -3.9939,-0.24007 -0.08969,0.012 -0.137331,0.11786 -0.205996,0.17679 0.02086,1.90797 0.343064,3.8134 0.289566,5.72682 -0.01085,3.08249 0.04207,6.16489 0.06314,9.24728 0.036,3.32149 0.06567,6.64324 0.139791,9.96413 0.104585,3.49202 0.268074,6.98467 0.559406,10.4664 0.280606,3.2562 0.585989,6.51071 0.986291,9.75472 0.381637,3.04879 0.806993,6.09191 1.329028,9.12024 0.526699,3.06526 1.088629,6.12528 1.779698,9.15842 0.671132,2.95018 1.36454,5.89831 2.220474,8.80121 0.839066,2.83821 1.745548,5.65468 2.630096,8.47881 0.921576,2.70535 1.931461,5.37871 3.127062,7.97673 1.248524,2.74655 2.542226,5.47844 4.098195,8.06739 1.399383,2.04824 3.04506,3.86445 4.948877,5.4629 1.637617,1.4588 3.288976,2.90949 4.821132,4.47991 1.257565,1.29486 2.559904,2.55515 3.968587,3.68585 1.492528,1.1526 3.132356,2.02878 5.037441,2.24422 1.952085,0.16253 3.869023,-0.084 5.753261,-0.62823 1.981917,-0.64424 3.821677,-1.50785 5.210666,-3.12652 1.340622,-1.80124 2.194698,-3.77862 2.683415,-5.97678 0.570073,-2.24104 0.718544,-4.54941 0.75881,-6.85676 0.427967,-16.95197 0.297497,-33.9194 -0.123389,-50.87111 -0.07686,-2.47253 -0.221056,-4.93958 -0.444671,-7.40354 -0.167353,-1.90982 -0.08679,-4.1565 -1.312149,-5.72956 -1.372656,-0.80758 -4.387064,-1.20295 -5.820928,-0.23249 -0.46626,0.31558 -0.662172,1.00881 -0.857669,1.47263 -0.608209,2.41735 -0.942588,4.88716 -1.349207,7.34357 -0.167334,2.11557 -0.461919,4.22189 -0.518076,6.34277 -0.02913,1.95827 -0.06644,3.91642 -0.08615,5.87481 -0.0023,1.90659 0.02468,3.82905 -0.225051,5.72042 -0.251438,1.81932 -0.736984,3.58568 -1.385217,5.3043 -0.524983,1.1959 -1.145164,2.36409 -1.373583,3.6625 1.129895,0.52032 1.233019,-0.0231 1.164158,-1.06604 -0.02365,-0.27923 0.172353,-3.92243 0.174664,-1.9787 0.08244,69.33455 0.633353,56.36417 -0.166569,41.36159 -0.05768,-1.78696 0.252251,-3.50957 0.974398,-5.15372 0.493184,-1.14762 1.139964,-2.31949 1.397827,-3.52831 -1.973511,-0.28594 -0.09023,-0.0378 -3.886913,-0.29501 -0.333871,-0.0226 -0.992545,0.23405 -0.998862,-0.10052 -1.153865,-61.11282 -1.010782,-57.86348 0.322046,-42.61618 -0.175402,2.17347 -0.734708,4.288 -1.420389,6.35165 -0.716367,2.2851 -1.65339,4.50585 -2.054416,6.87978 -0.433503,1.92362 -0.8606,3.84852 -1.475796,5.72457 -0.266938,0.68252 -1.071465,2.09153 -0.528471,2.72263 0.197248,0.033 0.69965,0.15824 0.89344,0.017 0.101117,-0.0737 -0.197454,-1.81813 -0.281807,-1.9419 -0.277599,-2.0564 -0.443573,-4.11492 -0.351657,-6.19406 -0.0096,13.98691 0.007,27.97386 -0.02883,41.96072 -0.0012,0.48423 -0.06765,-0.96658 -0.07506,-1.45076 -0.03156,-2.06363 0.215055,-4.11779 0.398542,-6.16896 0.285891,-2.9116 0.62057,-5.81764 1.029937,-8.71477 0.409598,-2.80066 0.858839,-5.59551 1.391293,-8.37574 0.528417,-2.6139 1.130284,-5.21368 1.85649,-7.78033 0.708633,-2.39953 1.53749,-4.7582 2.405234,-7.10444 0.839662,-2.08521 1.736354,-4.15161 2.806558,-6.13048 0.818131,-1.49742 1.694188,-2.94851 2.695409,-4.32624 0.707566,-0.98421 1.553883,-1.85467 2.379409,-2.73892 0.525761,-0.40844 1.13122,-0.78316 1.624962,-1.17992 -0.546729,-0.0544 -1.277364,0.0387 -1.324191,0.72694 -0.288792,1.54305 -0.147111,3.1049 -0.154818,4.66723 0.08291,2.73484 0.231411,5.46995 0.555218,8.188 0.420965,3.1164 0.881787,6.23064 1.488519,9.3168 0.728682,3.23923 1.553312,6.45547 2.489622,9.64139 0.986245,3.25508 2.108173,6.46617 3.460431,9.58948 1.313711,3.02511 2.644245,6.04475 4.092102,9.00855 1.415386,2.85655 2.82785,5.72003 4.491654,8.44288 1.583441,2.61879 3.158252,5.25302 4.960434,7.72884 1.815038,2.44548 3.693365,4.8428 5.524954,7.27583 1.7613,2.3558 3.411295,4.793 5.133356,7.17734 0.60678,0.8922 3.068077,4.01187 2.692859,5.01942 z" />
  </g>
  <metadata
     id="metadata1">
    <rdf:RDF>
      <cc:Work>
        <dc:format>image/svg+xml</dc:format>
        <dc:type
           rdf:resource="http://purl.org/dc/dcmitype/StillImage" />
        <cc:license
           rdf:resource="http://creativecommons.org/publicdomain/zero/1.0/" />
        <dc:publisher>
          <cc:Agent
             rdf:about="http://openclipart.org/">
            <dc:title>Openclipart</dc:title>
          </cc:Agent>
        </dc:publisher>
        <dc:title>sticky note (post-it)</dc:title>
        <dc:date>2010-03-25T17:58:49</dc:date>
        <dc:description>A realistic looking sticky note with a slight curl on one corner. Useful for displaying in-your-face notifications or reminders that need to be accepted or dismissed by a user. Rotate it slightly for a nice effect, or leave it upright and overlay HTML text directly on top -- see the sample text for color ideas.</dc:description>
        <dc:source>https://openclipart.org/detail/34075/sticky-note-(post-it)-by-matthewgarysmith</dc:source>
        <dc:creator>
          <cc:Agent>
            <dc:title>matthewgarysmith</dc:title>
          </cc:Agent>
        </dc:creator>
        <dc:subject>
          <rdf:Bag>
            <rdf:li>note</rdf:li>
            <rdf:li>post it</rdf:li>
            <rdf:li>post-it</rdf:li>
            <rdf:li>reminder</rdf:li>
            <rdf:li>sticky</rdf:li>
            <rdf:li>sticky note</rdf:li>
            <rdf:li>yellow</rdf:li>
          </rdf:Bag>
        </dc:subject>
      </cc:Work>
      <cc:License
         rdf:about="http://creativecommons.org/publicdomain/zero/1.0/">
        <cc:permits
           rdf:resource="http://creativecommons.org/ns#Reproduction" />
        <cc:permits
           rdf:resource="http://creativecommons.org/ns#Distribution" />
        <cc:permits
           rdf:resource="http://creativecommons.org/ns#DerivativeWorks" />
      </cc:License>
    </rdf:RDF>
  </metadata>
</svg>
